<?xml version="1.0" encoding="UTF-8" standalone="no"?>
<!-- Creator: CorelDRAW 2019 (64 Bit Versão de avaliação) -->

<svg
   xml:space="preserve"
   width="15mm"
   height="15mm"
   version="1.1"
   style="clip-rule:evenodd;fill-rule:evenodd;image-rendering:optimizeQuality;shape-rendering:geometricPrecision;text-rendering:geometricPrecision"
   viewBox="0 0 1500 1500"
   id="svg40"
   sodipodi:docname="logo30.svg"
   inkscape:version="1.3 (1:1.3+202307231459+0e150ed6c4)"
   xmlns:inkscape="http://www.inkscape.org/namespaces/inkscape"
   xmlns:sodipodi="http://sodipodi.sourceforge.net/DTD/sodipodi-0.dtd"
   xmlns="http://www.w3.org/2000/svg"
   xmlns:svg="http://www.w3.org/2000/svg"
   xmlns:rdf="http://www.w3.org/1999/02/22-rdf-syntax-ns#"
   xmlns:cc="http://creativecommons.org/ns#"
   xmlns:dc="http://purl.org/dc/elements/1.1/"><metadata
   id="metadata25"><rdf:RDF><cc:Work
       rdf:about=""><dc:format>image/svg+xml</dc:format><dc:type
         rdf:resource="http://purl.org/dc/dcmitype/StillImage" /></cc:Work></rdf:RDF></metadata><sodipodi:namedview
   pagecolor="#ffffff"
   bordercolor="#666666"
   borderopacity="1"
   objecttolerance="10"
   gridtolerance="10"
   guidetolerance="10"
   inkscape:pageopacity="0"
   inkscape:pageshadow="2"
   inkscape:window-width="1024"
   inkscape:window-height="690"
   id="namedview23"
   showgrid="false"
   inkscape:zoom="6.7277216"
   inkscape:cx="29.876385"
   inkscape:cy="26.97793"
   inkscape:window-x="0"
   inkscape:window-y="0"
   inkscape:window-maximized="1"
   inkscape:current-layer="Layer_x0020_1"
   inkscape:pagecheckerboard="0"
   inkscape:document-units="mm"
   inkscape:showpageshadow="2"
   inkscape:deskcolor="#d1d1d1" />&#10; <defs
   id="defs20">&#10;  <style
   type="text/css"
   id="style2">&#10;   <![CDATA[
    .fil2 {fill:#FEFEFE}
    .fil0 {fill:#5E0F0D;fill-rule:nonzero}
    .fil1 {fill:url(#id3)}
   ]]>&#10;  </style>&#10;    <clipPath
   id="id0">&#10;     <path
   d="M 4704.25,8557.22 H 16856.72 V 19927.76 H 4704.25 Z"
   id="path4"
   inkscape:connector-curvature="0" />&#10;    </clipPath>&#10;    <mask
   id="id1">&#10;  <linearGradient
   id="id2"
   gradientUnits="userSpaceOnUse"
   x1="4097.98"
   y1="9650"
   x2="13263.5"
   y2="14257.25">&#10;   <stop
   offset="0"
   style="stop-opacity:1; stop-color:white"
   id="stop7" />&#10;   <stop
   offset="1"
   style="stop-opacity:0; stop-color:white"
   id="stop9" />&#10;  </linearGradient>&#10;     <rect
   style="fill:url(#id2)"
   x="4667.5898"
   y="10505.22"
   width="8596.1602"
   height="7504.0498"
   id="rect12" />&#10;    </mask>&#10;  <linearGradient
   id="id3"
   gradientUnits="userSpaceOnUse"
   x1="4667.8398"
   y1="14789.6"
   x2="16597.359"
   y2="14789.6">&#10;   <stop
   offset="0"
   style="stop-opacity:1; stop-color:#3B0706"
   id="stop15" />&#10;   <stop
   offset="1"
   style="stop-opacity:1; stop-color:#5E0F0D"
   id="stop17" />&#10;  </linearGradient>&#10; </defs>&#10; <g
   id="Layer_x0020_1"
   transform="matrix(0.38528882,0,0,0.38528882,-1563.9181,-6597.815)"
   inkscape:label="Layer 1"
   inkscape:groupmode="layer">&#10;  <metadata
   id="CorelCorpID_0Corel-Layer" />&#10;  &#10;  <path
   id="path194"
   style="fill:#ffffff;stroke-width:62.5255"
   d="m 6029.494,20586.631 c -2617.8028,31.236 -2559.3982,-3080.626 0,-3079.166 2542.3113,1.45 2544.1826,3048.809 0,3079.166 z"
   sodipodi:nodetypes="sss" /><g
   id="_2447374874864"
   transform="matrix(0.26800879,0,0,0.26800879,3147.7206,15276.068)">&#10;   <path
   class="fil0"
   d="m 7698.2,10965.19 c -145.86,71.14 -293.3,117.15 -442.3,138.01 -148.99,20.86 -289.96,18.03 -422.88,-8.52 -132.92,-26.55 -252.08,-77.24 -357.48,-152.06 -105.38,-74.82 -187.78,-173.11 -247.16,-294.87 -56.42,-115.66 -81.66,-238.06 -75.73,-367.18 5.92,-129.11 38.97,-254.98 99.14,-377.59 60.17,-122.6 143.98,-236.96 251.42,-343.05 107.42,-106.09 234.07,-194.71 379.93,-265.85 l 159.23,326.46 c -88.28,43.06 -165.27,97.1 -230.98,162.11 -65.7,65.01 -117.16,134.86 -154.39,209.54 -37.21,74.67 -57.89,151.63 -62,230.89 -4.11,79.25 10.91,153.88 45.05,223.89 34.9,71.53 84.64,129.69 149.25,174.48 64.61,44.79 137.8,75.5 219.56,92.15 81.77,16.64 168.49,19.09 260.17,7.34 91.68,-11.75 181.66,-39.15 269.94,-82.21 z M 6858.16,9323.23 c -138.62,71.38 -258.58,159.08 -359.88,263.13 -101.3,104.05 -179.84,215.82 -235.59,335.33 -55.74,119.5 -86.06,241.21 -90.97,365.12 -4.9,123.91 19.75,241.42 73.94,352.52 17.82,36.52 44.25,77.32 79.29,122.4 35.06,45.08 73.51,86.14 115.33,123.2 41.83,37.07 83.21,65.87 124.11,86.42 40.91,20.56 75.77,23.81 104.55,9.77 26.88,-13.11 44.95,-30.86 54.2,-53.28 9.26,-22.41 8.69,-44.27 -1.7,-65.58 -2.23,-4.57 -11.74,-13.11 -28.54,-25.65 -16.81,-12.53 -35.68,-26.86 -56.63,-43.03 -20.94,-16.16 -41.52,-31.56 -61.73,-46.19 -20.2,-14.64 -34.45,-25.59 -42.74,-32.85 -45.92,-45.43 -83.72,-98.58 -113.42,-159.46 -39.34,-80.67 -59.85,-165.34 -61.53,-254.01 -1.66,-88.67 12.96,-176.82 43.88,-264.43 30.92,-87.61 77.43,-172.47 139.54,-254.57 62.11,-82.11 137.65,-156.16 226.63,-222.17 z m 658.71,1343.24 c -65.99,30.31 -132.83,51.6 -200.49,63.87 -67.66,12.28 -133.8,16.75 -198.39,13.39 -64.59,-3.35 -126.49,-14.6 -185.73,-33.75 -59.23,-19.15 -112.84,-46.24 -160.79,-81.25 2.42,19.55 -3.02,40.09 -16.27,61.63 -13.24,21.54 -31.39,37.92 -54.43,49.15 -26.87,13.11 -50.56,18.07 -71.12,14.91 98.89,76.11 215.89,123.61 351.02,142.49 135.13,18.87 274.24,9.42 417.37,-28.36 z m 738.4,-1834.7 446.46,-86.79 285.95,1471.07 276.69,-53.78 69.31,356.54 -723.16,140.57 z m 366.12,1799.62 159.57,-186.27 -285.95,-1471.07 181.34,-208.61 -402.46,78.23 z m 200.2,-212.28 257.82,-50.11 159.56,-186.27 -257.81,50.11 z m 2464.96,-387.8 c -0.97,55.87 -15.22,107.7 -42.76,155.49 -27.53,47.78 -64.56,89.9 -111.12,126.35 -46.56,36.44 -100.44,64.71 -161.65,84.82 -61.22,20.1 -127.06,29.53 -197.51,28.3 -70.46,-1.23 -135.93,-12.95 -196.41,-35.18 -60.46,-22.23 -113.87,-52.37 -160.18,-90.44 -46.32,-38.06 -82.41,-81.46 -108.25,-130.18 -25.85,-48.72 -38.28,-101.01 -37.31,-156.88 l 25.45,-1457.74 457.96,7.99 -25.45,1457.74 c -0.48,27.09 15.3,40.91 47.33,41.47 34.15,0.6 51.47,-12.65 51.95,-39.74 l 25.44,-1457.73 457.96,7.99 z m -438.74,-7.66 c -0.27,15.24 -6.9,28.24 -19.9,39.03 -13,10.78 -29.11,16 -48.32,15.67 -19.22,-0.34 -34.1,-4.41 -44.64,-12.21 -10.55,-7.81 -26.5,-11.9 -47.83,-12.27 -27.76,-0.48 -50.85,6.31 -69.25,20.38 -18.38,14.08 -27.78,32.12 -28.17,54.13 -0.29,16.93 5.85,31.86 18.44,44.78 12.6,12.92 28.42,23.36 47.51,31.31 19.08,7.96 39.79,14.25 62.13,18.87 22.35,4.62 42.06,7.09 59.15,7.38 74.72,1.31 136.98,-17.93 186.8,-57.7 49.83,-39.78 75.22,-88.46 76.23,-146.02 l 22.88,-1310.44 213.66,-128.37 -403.51,-7.04 z m -557.28,-7.19 c -0.41,23.71 3.92,51.3 12.97,82.79 9.07,31.49 21.88,61.77 38.46,90.86 16.58,29.08 36.98,53.57 61.19,73.47 24.21,19.89 51.26,30.1 81.14,30.63 27.76,0.48 48.69,-5.92 62.81,-19.23 14.12,-13.31 21.37,-30.96 21.74,-52.97 0.22,-11.85 -4.37,-24.63 -13.74,-38.34 -9.37,-13.72 -19.24,-28.7 -29.65,-44.98 -10.39,-16.27 -20.22,-33.8 -29.5,-52.59 -9.29,-18.8 -13.72,-40.04 -13.31,-63.74 l 22.96,-1315.52 213.67,-128.37 -403.51,-7.05 z m 3201.71,-286.36 c -20.61,76.88 -55.08,147.84 -103.47,212.89 -48.38,65.04 -107.7,121.46 -177.99,169.25 31.17,48.67 50.83,99.08 58.96,151.22 8.12,52.14 5.63,102.75 -7.52,151.82 -14.03,52.34 -38.23,99.32 -72.59,140.95 -34.36,41.64 -76.48,75.06 -126.34,100.26 -49.86,25.2 -106,40.85 -168.42,46.91 -62.42,6.06 -127.65,-0.02 -195.72,-18.26 l -473.37,-126.84 494.37,-1844.99 c 134.08,35.92 255.25,88.99 363.56,159.2 108.29,70.22 197.28,150.6 266.97,241.15 69.69,90.55 117.94,188.94 144.74,295.17 26.8,106.23 25.75,213.32 -3.18,321.27 z m -238.23,-63.83 c 24.11,-89.96 21.22,-182.33 -8.65,-277.11 -29.87,-94.78 -84.2,-180.77 -162.99,-257.99 l -53.91,201.19 c 51.6,96.22 64.46,192.57 38.6,289.08 -21.03,78.51 -64.74,142.62 -131.12,192.32 -66.37,49.71 -137.73,93.26 -214.07,130.66 76.32,20.45 144.02,27.64 203.14,21.56 59.1,-6.08 110.37,-22.14 153.83,-48.19 43.47,-26.05 79.78,-60.57 109,-103.58 29.22,-43.02 51.27,-92.33 66.17,-147.94 z m -204.2,-54.71 c 22.36,-83.42 13.05,-168.31 -27.92,-254.67 l -122.94,458.8 c 77.8,-51.04 128.07,-119.08 150.86,-204.13 z m 199.2,-533.03 c 6.13,-22.9 -6.29,-50.77 -37.29,-83.62 -30.98,-32.85 -72.31,-66.28 -123.99,-100.28 -51.69,-34.01 -108.99,-65.58 -171.93,-94.72 -62.94,-29.13 -123.28,-51.44 -181.03,-66.91 l -485.16,1810.65 225.07,-97.47 401.68,-1499.06 c 17.68,8.25 39.54,21.55 65.57,39.92 26.03,18.38 51.42,37.01 76.2,55.92 24.78,18.91 47.93,35.63 69.46,50.17 21.53,14.53 37.44,23.18 47.77,25.94 28.87,7.74 53.28,9.46 73.22,5.16 19.94,-4.29 33.42,-19.53 40.43,-45.7 z m -3.23,1187.71 c -6.43,-42.04 -19.53,-79.74 -39.33,-113.09 -19.79,-33.35 -56.52,-57.22 -110.15,-71.59 -35.07,-9.39 -70.3,-14.01 -105.71,-13.86 -35.41,0.15 -69.3,2.9 -101.69,8.25 60.57,21.49 105.65,53.29 135.26,95.41 29.62,42.12 43.22,88.28 40.82,138.48 z m -424.67,25.58 c 1.31,-4.9 2.23,-10.35 2.73,-16.36 0.5,-6 -1.9,-11.46 -7.22,-16.39 -10.74,-1.14 -23.62,1.55 -38.62,8.05 l -15.78,58.88 21.65,5.81 c 16.51,4.42 26.95,-1.55 31.33,-17.91 z m 198.94,74.34 c 6.14,-22.9 3.54,-44.18 -7.76,-63.87 -11.31,-19.69 -32.43,-33.67 -63.36,-41.96 -30.93,-8.29 -54.35,-7.55 -70.23,2.22 -15.89,9.77 -27.85,21.46 -35.92,35.08 -8.09,13.61 -15.41,26.54 -22.01,38.8 -6.61,12.26 -17.12,16.45 -31.56,12.59 l -40.22,-10.78 -221.99,98.29 222.76,59.69 c 68.07,18.24 126.63,14.21 175.68,-12.09 49.05,-26.31 80.59,-65.62 94.61,-117.97 z m 2019.31,-753.98 708.33,425.61 -187.07,311.35 -315.73,-189.72 -384.61,640.1 225.14,135.27 -187.07,311.34 -225.14,-135.27 -13.08,21.77 315.73,189.72 -187.07,311.34 -708.34,-425.62 z m -929.35,1584.02 243.21,-31.65 781,-1299.79 326.72,196.31 243.21,-31.66 -656.17,-394.27 z m 496.46,-353.61 208.65,125.37 243.23,-31.65 -208.66,-125.37 z m -200.16,333.11 296.52,178.16 243.22,-31.65 -296.51,-178.16 z"
   id="path28"
   inkscape:connector-curvature="0"
   style="fill:#5e0f0d;fill-rule:nonzero" />&#10;   <path
   class="fil0"
   d="m 5173.17,17323.13 46,52.26 -99.06,73.78 -46.01,-52.25 -106.01,78.95 -80.23,-91.13 507.85,-378.21 144.76,164.4 -99.08,73.78 -64.52,-73.27 z m -275.01,60.28 75.23,7.27 413.63,-308.04 66.76,75.82 75.24,7.28 -134.09,-152.29 z m 195.06,-65.09 42.65,48.42 75.23,7.28 -42.64,-48.42 z m 373.92,481.75 c -14.11,12.52 -29.83,21.74 -47.18,27.65 -17.34,5.91 -35.16,8.81 -53.44,8.72 -18.29,-0.12 -35.99,-3.39 -53.1,-9.85 -17.11,-6.45 -32.47,-16.18 -46.1,-29.15 -13.62,-12.98 -23.65,-27.44 -30.07,-43.39 -6.42,-15.95 -9.47,-32.44 -9.15,-49.43 0.32,-17.01 3.99,-33.38 11.02,-49.12 7.02,-15.73 17.59,-29.87 31.7,-42.41 l 368.11,-326.91 88.56,84.34 -368.11,326.92 c -6.84,6.07 -7.16,12.06 -0.97,17.96 6.6,6.29 13.33,6.4 20.17,0.32 l 368.11,-326.92 88.56,84.34 z m -84.85,-80.81 c -3.84,3.41 -8.39,5.19 -13.65,5.29 -5.25,0.1 -9.73,-1.6 -13.46,-5.15 -3.71,-3.53 -5.64,-7.14 -5.79,-10.8 -0.14,-3.68 -2.27,-7.49 -6.39,-11.42 -5.38,-5.11 -11.64,-7.72 -18.77,-7.84 -7.14,-0.12 -13.5,2.29 -19.05,7.23 -4.28,3.8 -6.78,8.3 -7.51,13.51 -0.73,5.2 -0.2,10.44 1.6,15.68 1.78,5.24 4.3,10.41 7.58,15.49 3.26,5.07 6.55,9.18 9.85,12.32 14.45,13.77 31.55,20.62 51.32,20.55 19.76,-0.07 36.9,-6.56 51.44,-19.47 l 330.91,-293.89 74.23,9.31 -78.04,-74.31 z m -108.39,-102.05 c -5.98,5.31 -12.01,12.38 -18.06,21.17 -6.06,8.79 -11.06,17.99 -15.03,27.59 -3.97,9.6 -6.03,18.85 -6.2,27.73 -0.16,8.88 2.65,16.09 8.42,21.59 5.37,5.11 11.1,7.42 17.21,6.95 6.1,-0.49 11.93,-3.19 17.48,-8.13 3.01,-2.66 5.28,-6.4 6.84,-11.2 1.56,-4.81 3.34,-10 5.34,-15.57 2,-5.57 4.42,-11.34 7.26,-17.29 2.85,-5.93 7.26,-11.57 13.25,-16.88 l 332.2,-295.04 74.23,9.32 -78.03,-74.32 z m 454.21,372.21 -111.71,118.19 -96.22,-76.92 428.72,-453.57 86.13,68.85 -72.68,149.39 111.71,-118.18 96.22,76.91 -428.74,453.57 -86.12,-68.85 z m 227.16,-179.07 -54.27,92.41 -124.2,170.13 305.9,-323.63 76.67,2.62 -84.77,-67.77 z m -211.36,162.36 -79.94,162.06 63.52,-12.21 207.67,-427.15 z m -213.84,55.02 75.46,-4.85 348.6,-368.8 71.35,-9.24 -76.04,-60.78 z m 810.35,222.77 c -25.41,31 -55.24,56.51 -89.52,76.57 -34.29,20.03 -70.53,34.28 -108.7,42.72 -38.18,8.45 -77.59,10.92 -118.23,7.38 -40.65,-3.52 -80.03,-13.36 -118.15,-29.52 l 416.89,-508.78 c 27.39,29.24 48.53,61.35 63.42,96.31 14.89,34.96 23.22,70.67 24.97,107.13 1.76,36.46 -3.25,72.53 -14.98,108.2 -11.74,35.66 -30.3,68.99 -55.7,99.99 z m -101.82,-70.56 c 23.96,-29.24 38.37,-61.35 43.21,-96.33 l -131.99,161.09 c 17.61,-6.97 33.83,-16.09 48.66,-27.37 14.83,-11.29 28.2,-23.75 40.12,-37.39 z m 143.05,-17.9 c 3.21,-3.92 6.12,-9.97 8.69,-18.1 2.57,-8.14 4.76,-16.72 6.56,-25.73 1.81,-9.02 3.24,-17.79 4.27,-26.31 1.03,-8.53 1.79,-15.36 2.27,-20.49 2.96,-41.76 -2.29,-80.99 -15.76,-117.7 -13.45,-36.7 -34.94,-72.46 -64.45,-107.29 l -407.23,497 89.93,-28.02 314.95,-384.38 c 17.98,34.38 28.31,67.87 30.96,100.51 2.65,32.64 -2.37,67.14 -15.06,103.52 -1.68,5.68 -1.99,11.28 -0.93,16.81 1.05,5.52 4.67,10.42 10.83,14.69 13.31,9.22 24.95,7.72 34.97,-4.51 z m -126.45,80.74 c 6.45,-7.86 9.22,-13.97 8.34,-18.35 -0.88,-4.37 -3.92,-8.37 -9.15,-11.98 -6.18,-4.29 -12.83,-5.47 -19.96,-3.57 -7.14,1.89 -15.58,5.62 -25.35,11.17 -9.76,5.56 -20.94,12.18 -33.58,19.86 -12.61,7.68 -27.01,15.49 -43.2,23.45 l -107.47,50.76 c 19.02,2.24 40.23,1.54 63.67,-2.08 23.42,-3.61 46.16,-8.89 68.24,-15.84 22.06,-6.95 42.02,-15.19 59.88,-24.72 17.85,-9.53 30.71,-19.09 38.58,-28.7 z m 258.33,314.02 -23.93,-12.7 -68.2,108.64 -110.42,-58.63 256.32,-408.28 c 9.8,-15.62 22.17,-28.47 37.07,-38.53 14.91,-10.08 31.21,-17.2 48.92,-21.37 17.71,-4.16 35.77,-5.32 54.14,-3.45 18.39,1.88 36.08,7.33 53.07,16.35 16.99,9.01 30.96,20.38 41.91,34.08 10.95,13.71 18.77,28.59 23.45,44.64 4.67,16.06 5.99,32.54 3.96,49.45 -2.03,16.9 -7.95,33.17 -17.76,48.79 l -256.32,408.28 -110.42,-58.63 z m 188.11,-299.64 c 1.78,-2.83 2.2,-5.94 1.22,-9.3 -0.99,-3.35 -3.03,-5.85 -6.11,-7.5 -3.08,-1.63 -6.51,-2.19 -10.27,-1.67 -3.77,0.53 -6.54,2.21 -8.32,5.05 l -124.82,198.83 23.93,12.71 z m 55.6,29.52 c 7.13,-11.36 10.32,-23.55 9.57,-36.57 -0.74,-13.03 -5.15,-25.14 -13.2,-36.36 -11.05,-2.07 -21.81,-1.33 -32.31,2.26 -10.47,3.58 -19.06,9.59 -25.73,18.04 5.14,2.74 9.03,6.38 11.66,10.94 2.64,4.54 2.32,9.43 -0.95,14.63 l -127.04,202.38 -30.12,-15.99 -80.37,19.81 132.02,70.09 z m 14.35,-109.77 c 8.32,-13.26 3.72,-24.53 -13.77,-33.83 -15.96,-8.46 -32.93,-13.69 -50.9,-15.66 -17.97,-1.97 -35.49,-0.86 -52.55,3.35 -17.04,4.19 -32.87,11.1 -47.48,20.7 -14.6,9.6 -26.52,21.74 -35.73,36.41 l -251.86,401.18 80.38,-19.8 224.22,-357.16 c 10.7,-17.05 26.53,-28.04 47.49,-33.01 20.96,-4.97 40.71,-2.53 59.23,7.31 17.5,9.29 31.16,6.13 40.97,-9.49 z m -252.09,380.23 -65.08,103.66 80.38,-19.8 65.08,-103.66 z m 620.47,118.43 c -18.5,34.89 -42.49,65.17 -71.99,90.86 -29.5,25.69 -62.11,46.03 -97.83,61.02 -35.72,14.99 -73.9,24.33 -114.53,27.99 -40.63,3.67 -81.34,0.92 -122.11,-8.25 l 303.67,-572.58 c 32.96,23.9 60.37,51.71 82.24,83.4 21.87,31.71 37.45,65.3 46.74,100.79 9.29,35.48 11.87,71.77 7.74,108.84 -4.12,37.07 -15.43,73.05 -33.93,107.93 z m -114.59,-51.4 c 17.45,-32.91 24.94,-66.96 22.44,-102.15 l -96.15,181.29 c 15.84,-9.92 29.87,-21.73 42.08,-35.4 12.23,-13.68 22.77,-28.25 31.63,-43.74 z m 136.71,-42.67 c 2.34,-4.42 3.94,-10.85 4.78,-19.3 0.84,-8.44 1.2,-17.24 1.11,-26.41 -0.1,-9.16 -0.53,-18.02 -1.28,-26.58 -0.75,-8.55 -1.43,-15.38 -2.02,-20.5 -5.76,-41.51 -19.05,-79.1 -39.89,-112.77 -20.82,-33.67 -49.34,-65 -85.53,-94.02 l -296.63,559.33 82.46,-43.28 229.42,-432.58 c 24.78,30.58 41.87,61.65 51.24,93.22 9.37,31.57 11.6,66.33 6.69,104.27 -0.46,5.87 0.4,11.42 2.58,16.65 2.17,5.25 6.74,9.42 13.69,12.54 14.96,6.71 26.09,3.18 33.38,-10.57 z m -107.37,101.44 c 4.69,-8.84 6.15,-15.33 4.38,-19.48 -1.78,-4.13 -5.59,-7.52 -11.48,-10.16 -6.94,-3.11 -13.71,-3.11 -20.32,0 -6.62,3.13 -14.14,8.27 -22.57,15.43 -8.44,7.16 -18.04,15.62 -28.84,25.38 -10.79,9.76 -23.31,19.95 -37.54,30.59 l -94.96,68.69 c 19.12,-1.14 39.81,-5.55 62.05,-13.2 22.25,-7.66 43.48,-16.83 63.71,-27.53 20.22,-10.7 38.1,-22.29 53.66,-34.77 15.53,-12.49 26.18,-24.14 31.91,-34.95 z m 452.34,328.57 c -7.35,16.73 -17.64,31.02 -30.88,42.91 -13.23,11.89 -28.22,21.2 -44.97,27.95 -16.74,6.75 -34.37,10.38 -52.86,10.88 -18.48,0.5 -36.81,-2.63 -55.01,-9.39 -18.18,-6.76 -33.73,-16.23 -46.66,-28.39 -12.92,-12.17 -22.99,-26.09 -30.22,-41.75 -7.22,-15.65 -11.11,-31.98 -11.65,-48.98 -0.54,-17 2.86,-33.88 10.21,-50.59 l 138.92,-316.26 c 7.35,-16.72 17.65,-31.02 30.88,-42.9 13.24,-11.88 28.31,-21.03 45.22,-27.42 16.9,-6.38 34.61,-9.83 53.09,-10.33 18.5,-0.5 36.83,2.63 55.01,9.39 18.2,6.76 33.76,16.22 46.67,28.39 12.92,12.17 22.91,25.91 29.98,41.2 7.05,15.3 10.87,31.45 11.4,48.46 0.55,17 -2.86,33.86 -10.2,50.58 z m 123.54,-405.97 c 2.67,-6.08 2.69,-12.7 0.07,-19.87 -2.62,-7.17 -6.95,-14.08 -12.99,-20.75 -6.05,-6.67 -13.67,-13.03 -22.87,-19.11 -9.19,-6.07 -18.74,-10.94 -28.67,-14.63 -17.07,-6.34 -34.53,-9.29 -52.36,-8.84 -17.82,0.46 -34.76,3.6 -50.77,9.43 -16.03,5.84 -30.56,14.44 -43.57,25.82 -13.01,11.38 -22.95,24.92 -29.86,40.64 l -140.27,319.28 c -3.55,8.11 -6.11,17.18 -7.63,27.23 -1.53,10.04 -1.82,19.81 -0.87,29.31 0.96,9.49 3.09,17.8 6.36,24.91 3.29,7.12 8.24,11.9 14.86,14.36 15.43,5.74 26.26,1.5 32.49,-12.69 1.33,-3.05 1.75,-6.88 1.2,-11.5 -0.53,-4.61 -0.99,-9.79 -1.34,-15.52 -0.38,-5.74 -0.38,-11.94 -0.02,-18.58 0.36,-6.64 2.09,-13.52 5.21,-20.62 l 138.94,-316.24 c 4.22,-9.63 10.3,-17.98 18.23,-25.06 7.91,-7.08 16.7,-12.51 26.38,-16.28 9.67,-3.78 19.96,-5.7 30.89,-5.77 10.93,-0.07 21.62,1.85 32.1,5.74 8.26,3.07 15.12,6.8 20.57,11.18 5.45,4.38 10.15,8.63 14.1,12.76 3.96,4.13 7.43,7.91 10.39,11.38 2.96,3.46 6.38,5.9 10.23,7.32 13.23,4.92 22.97,0.28 29.2,-13.9 z m -102.82,45.8 c 1.33,-3.04 1.26,-6.15 -0.21,-9.36 -1.48,-3.2 -3.87,-5.41 -7.18,-6.64 -3.31,-1.23 -6.78,-1.35 -10.43,-0.34 -3.65,1 -6.25,3.28 -7.81,6.82 l -138.93,316.24 c -3.56,8.12 -0.93,13.81 7.88,17.08 3.87,1.43 7.44,1.29 10.76,-0.43 3.33,-1.71 5.65,-4.08 6.98,-7.13 z m 55.22,18.75 c 3.12,-7.09 3.73,-13.94 1.82,-20.54 -1.9,-6.61 -6.99,-11.45 -15.26,-14.52 -8.27,-3.07 -15.58,-2.84 -21.94,0.69 -6.36,3.54 -11.1,8.85 -14.22,15.95 l -138.92,316.24 c -3.13,7.09 -7.25,11.02 -12.38,11.76 -5.13,0.74 -10.46,0.09 -15.97,-1.95 -2.75,-1.02 -5.6,-2.22 -8.51,-3.61 -2.92,-1.38 -5.76,-2.58 -8.52,-3.61 -6.06,-2.25 -11.68,-2.57 -16.87,-0.96 -5.21,1.61 -9.02,5.2 -11.47,10.77 -4.46,10.13 -3.19,19.31 3.78,27.5 6.98,8.19 15.16,14.03 24.52,17.51 18.74,6.96 37.26,6.77 55.54,-0.59 18.3,-7.35 31.23,-19.64 38.8,-36.87 z m 603.55,72.73 221.12,58.31 -35.14,112.7 -98.57,-25.99 -72.25,231.72 70.28,18.52 -35.14,112.71 -70.28,-18.53 -2.45,7.87 98.56,26 -35.14,112.71 -221.11,-58.32 z m -172.52,571.18 66.16,-33.73 146.7,-470.51 101.99,26.89 66.17,-33.74 -204.82,-54.01 z m 119.19,-156.22 65.13,17.18 66.17,-33.72 -65.14,-17.18 z m -37.6,120.59 92.55,24.4 66.18,-33.72 -92.56,-24.41 z m 667.65,-103.8 -87.75,90.77 -34.75,-116.77 -78.41,312.37 -124.23,-26.38 147.01,-585.58 104.25,22.13 45.69,156.96 118.48,-122.1 102.5,21.76 -147,585.59 -124.21,-26.37 z m -26.99,-140.36 -24.87,99.07 162.79,-167.39 71.98,-35.21 -90.34,-19.18 z m 133.04,-41.59 c -1.1,2.01 -4.39,7.76 -9.81,17.26 -5.44,9.51 -11.78,20.79 -19.02,33.83 -7.24,13.06 -14.98,26.84 -23.2,41.37 -8.22,14.52 -15.87,28.03 -22.98,40.55 -7.11,12.51 -12.92,22.92 -17.44,31.22 -4.53,8.3 -6.79,12.44 -6.79,12.44 l -78.02,310.77 64.15,-36.87 z m -231.86,-45.86 6.66,184.85 c 0.53,5.16 2.31,13.26 5.34,24.27 3.03,11.02 6.25,22.51 9.65,34.45 3.42,11.95 6.77,23.46 10.09,34.54 3.31,11.08 6.05,19.66 8.19,25.72 l 24.86,-99.06 z m -192.98,480.74 64.16,-36.87 119.73,-476.94 52.86,-39.27 -92.95,-19.72 z m 1042.04,-298.31 -36.28,-4.1 15.54,-116.38 162.82,18.39 -79.65,596.51 -126.54,-14.29 z m -22.6,-66.17 99.99,11.3 58.73,-42.93 -152.2,-17.19 z m 28.13,65.14 -63.66,476.89 59.6,-42.84 63.67,-476.88 z m 587.95,160.82 c -1.38,18 -6.35,34.53 -14.95,49.59 -8.59,15.07 -19.72,28.18 -33.37,39.36 -13.66,11.17 -29.21,19.63 -46.63,25.36 -17.4,5.74 -35.89,7.97 -55.47,6.7 -19.56,-1.25 -37.54,-5.83 -53.91,-13.74 -16.38,-7.9 -30.64,-18.28 -42.76,-31.1 -12.14,-12.84 -21.32,-27.26 -27.55,-43.28 -6.24,-16.02 -8.67,-33.03 -7.3,-51.02 l 7.28,-95.7 c 1.37,-17.99 6.35,-34.52 14.94,-49.58 8.59,-15.06 19.86,-28.04 33.8,-38.92 13.93,-10.88 29.61,-19.19 47.02,-24.93 17.42,-5.72 35.91,-7.96 55.47,-6.7 19.58,1.26 37.55,5.84 53.92,13.74 16.38,7.9 30.51,18.13 42.35,30.67 11.86,12.54 20.91,26.83 27.14,42.85 6.23,16.01 8.66,33.01 7.29,51 z m -37.52,-176.66 c 0.5,-6.54 -1.71,-12.84 -6.6,-18.91 -4.9,-6.08 -11.35,-11.42 -19.34,-16.04 -7.98,-4.62 -17.37,-8.52 -28.16,-11.67 -10.78,-3.17 -21.5,-5.08 -32.18,-5.77 -18.37,-1.18 -35.96,0.97 -52.77,6.47 -16.8,5.49 -31.85,13.29 -45.12,23.39 -13.28,10.1 -24.2,22.42 -32.75,36.94 -8.55,14.52 -13.47,30.23 -14.75,47.14 l -7.53,98.97 c -0.66,8.71 -0.03,18.07 1.89,28.06 1.92,9.98 4.93,19.35 9.03,28.12 4.1,8.75 8.9,16.04 14.42,21.88 5.51,5.84 11.83,8.98 18.95,9.44 16.59,1.07 25.48,-6.04 26.64,-21.31 0.24,-3.27 -0.66,-7.03 -2.73,-11.27 -2.05,-4.24 -4.22,-9.03 -6.49,-14.39 -2.28,-5.34 -4.36,-11.24 -6.25,-17.66 -1.89,-6.42 -2.56,-13.45 -1.98,-21.09 l 7.27,-95.7 c 0.79,-10.35 3.77,-20.02 8.92,-29.01 5.15,-8.98 11.69,-16.63 19.62,-22.97 7.93,-6.34 17.08,-11.09 27.44,-14.27 10.38,-3.17 21.19,-4.39 32.45,-3.67 8.9,0.58 16.67,2.17 23.32,4.78 6.67,2.63 12.56,5.33 17.7,8.14 5.17,2.8 9.73,5.41 13.72,7.86 3.98,2.45 8.05,3.81 12.19,4.07 14.24,0.92 21.93,-6.26 23.09,-21.53 z m -82.39,72.79 c 0.25,-3.27 -0.86,-6.22 -3.35,-8.85 -2.48,-2.62 -5.5,-4.05 -9.06,-4.27 -3.55,-0.23 -6.9,0.64 -10.04,2.63 -3.12,2 -4.83,4.9 -5.12,8.71 l -7.28,95.7 c -0.67,8.73 3.76,13.39 13.23,14 4.16,0.27 7.52,-0.89 10.1,-3.46 2.59,-2.57 3.99,-5.49 4.24,-8.76 z m 58.82,2.14 c 0.58,-7.64 -1.13,-14.32 -5.17,-20.07 -4.03,-5.73 -10.5,-8.89 -19.4,-9.46 -8.89,-0.58 -15.77,1.73 -20.63,6.89 -4.86,5.17 -7.58,11.57 -8.17,19.2 l -7.27,95.7 c -0.58,7.64 -3.18,12.54 -7.82,14.7 -4.63,2.17 -9.9,3.06 -15.84,2.68 -2.96,-0.19 -6.06,-0.52 -9.3,-1 -3.25,-0.49 -6.36,-0.82 -9.32,-1.02 -6.51,-0.42 -11.97,0.88 -16.37,3.88 -4.41,3.01 -6.83,7.51 -7.28,13.51 -0.83,10.9 3.44,19.26 12.83,25.07 9.39,5.81 19.13,9.04 29.2,9.69 20.16,1.29 37.7,-4.15 52.63,-16.35 14.94,-12.19 23.1,-27.55 24.51,-46.09 z m 892.76,198.08 c 0,38.81 -7.12,75.7 -21.39,110.68 -14.27,34.99 -33.88,66.42 -58.84,94.29 -24.97,27.88 -54.83,51.66 -89.6,71.33 -34.77,19.68 -72.67,33.62 -113.68,41.82 v -637.06 c 41.01,8.19 78.91,22.13 113.68,41.81 34.77,19.68 64.78,43.59 90.04,71.74 25.27,28.15 44.88,59.72 58.85,94.7 13.96,34.99 20.94,71.88 20.94,110.69 z m -127.49,0 c 0,-36.62 -9.5,-70.24 -28.53,-100.85 v 201.7 c 9.52,-15.3 16.5,-31.57 20.96,-48.79 4.46,-17.22 6.98,-34.57 7.57,-52.06 z m 102.53,-93.47 c 0,-4.92 -1.63,-11.34 -4.9,-19.27 -3.27,-7.92 -7.14,-15.98 -11.59,-24.18 -4.46,-8.2 -9.06,-15.99 -13.82,-23.37 -4.75,-7.39 -8.61,-13.26 -11.59,-17.63 -24.97,-34.98 -54.83,-63.4 -89.6,-85.27 -34.76,-21.86 -75.33,-38.53 -121.69,-50.01 v 622.3 l 53.49,-72.15 v -481.29 c 36.85,17.5 67.02,38.54 90.49,63.14 23.47,24.6 42.05,54.93 55.72,91.01 2.37,5.47 5.79,10.11 10.25,13.94 4.46,3.83 10.55,5.73 18.28,5.73 16.64,0 24.96,-7.65 24.96,-22.95 z m -48.14,134.47 c 0,-9.85 -1.78,-16.26 -5.35,-19.28 -3.57,-3 -8.61,-4.5 -15.15,-4.5 -7.74,0 -13.82,2.73 -18.28,8.2 -4.46,5.46 -8.77,13.11 -12.93,22.95 -4.16,9.84 -8.76,21.32 -13.82,34.44 -5.05,13.12 -11.44,27.33 -19.16,42.64 l -52.61,100.02 c 16.65,-8.74 33.14,-21.04 49.48,-36.89 16.35,-15.85 31.06,-32.66 44.14,-50.42 13.07,-17.77 23.62,-35.4 31.65,-52.89 8.01,-17.49 12.03,-32.25 12.03,-44.27 z m 246.8,-349.67 229.46,-14.76 8.9,116.97 -102.28,6.57 18.27,240.47 72.94,-4.69 8.89,116.95 -72.93,4.69 0.62,8.18 102.28,-6.57 8.9,116.96 -229.47,14.75 z m 50.3,591 49.63,-52.51 -37.12,-488.28 105.83,-6.81 49.63,-52.51 -212.56,13.68 z m 53.91,-184.29 67.59,-4.34 49.63,-52.51 -67.58,4.35 z m 9.51,125.14 96.06,-6.17 49.63,-52.51 -96.05,6.18 z m 942.13,-368.66 -44.4,114.38 -79.77,-96.29 54.53,316.64 -125.92,18.34 -102.22,-593.59 105.66,-15.39 106.31,129.79 60.11,-154.04 103.91,-15.13 102.23,593.6 -125.91,18.33 z m -82.2,-120.84 17.29,100.41 82.76,-211.27 52.4,-57.45 -91.59,13.34 z m 106.41,-84.41 c -0.2,2.25 -0.9,8.71 -2.07,19.4 -1.16,10.69 -2.45,23.33 -3.84,37.92 -1.41,14.59 -2.97,30.04 -4.66,46.33 -1.71,16.3 -3.31,31.47 -4.8,45.53 -1.5,14.05 -2.64,25.7 -3.45,34.95 -0.83,9.26 -1.23,13.88 -1.23,13.88 l 54.26,315.01 44.46,-56.28 z m -233.66,37.37 81.47,169.09 c 2.6,4.61 7.55,11.49 14.84,20.67 7.3,9.18 14.96,18.71 22.98,28.61 8.04,9.91 15.83,19.43 23.42,28.55 7.59,9.13 13.62,16.14 18.07,21.03 l -17.3,-100.42 z m 16.9,512.21 44.47,-56.29 -83.26,-483.45 33.02,-54.62 -94.23,13.72 z m 711.3,-242.78 -27.03,5.29 28.36,122.71 -124.71,24.37 -106.57,-461.15 c -4.09,-17.63 -4.25,-34.78 -0.5,-51.44 3.75,-16.66 10.69,-31.98 20.83,-45.98 10.12,-14 22.7,-25.96 37.72,-35.88 15.02,-9.93 32.14,-16.75 51.31,-20.51 19.2,-3.75 37.85,-3.9 55.96,-0.46 18.11,3.45 34.75,9.69 49.9,18.75 15.15,9.05 28.13,20.48 38.92,34.3 10.8,13.82 18.22,29.55 22.3,47.18 l 106.58,461.15 -124.7,24.38 z m -78.22,-338.43 c -0.74,-3.21 -2.69,-5.77 -5.86,-7.66 -3.18,-1.89 -6.5,-2.49 -10,-1.81 -3.48,0.68 -6.43,2.37 -8.85,5.08 -2.41,2.71 -3.25,5.66 -2.5,8.87 l 51.89,224.56 27.04,-5.28 z m 62.79,-12.28 c -2.97,-12.83 -9.46,-23.85 -19.49,-33.07 -10.03,-9.21 -22.12,-15.51 -36.27,-18.89 -9.72,5.25 -17.17,12.43 -22.36,21.56 -5.18,9.11 -7.18,18.86 -6,29.24 5.81,-1.13 11.35,-0.82 16.63,0.94 5.26,1.77 8.57,5.6 9.94,11.47 l 52.82,228.57 -34,6.65 -45.33,64.18 149.12,-29.14 z m -69.2,-90.41 c -3.46,-14.97 -15.07,-20.52 -34.84,-16.65 -18.02,3.51 -34.44,10.07 -49.22,19.67 -14.79,9.6 -27,21.2 -36.62,34.82 -9.61,13.61 -16.35,28.48 -20.23,44.61 -3.86,16.12 -3.89,32.47 -0.06,49.05 l 104.73,453.12 45.33,-64.18 -93.24,-403.4 c -4.44,-19.25 -0.68,-37.17 11.28,-53.75 11.96,-16.6 28.41,-26.93 49.34,-31.02 19.76,-3.87 27.61,-14.62 23.53,-32.27 z m 89.31,437.7 27.06,117.09 45.33,-64.18 -27.06,-117.09 z m 164.63,-534.96 121.92,-34.29 191.07,574.74 -121.92,34.27 z m 193.58,565.44 35.51,-61.43 -154.58,-464.96 41.9,-67.5 -109.98,30.93 z m 547.37,-297.49 c 6.39,17.05 8.83,34.06 7.32,51.01 -1.5,16.96 -6.19,33.03 -14.01,48.23 -7.82,15.19 -18.53,28.56 -32.13,40.1 -13.59,11.53 -29.66,20.23 -48.21,26.11 -18.55,5.86 -37.04,8.11 -55.48,6.73 -18.43,-1.4 -35.96,-5.82 -52.58,-13.28 -16.62,-7.46 -31.2,-17.43 -43.74,-29.93 -12.54,-12.52 -22,-27.29 -28.39,-44.35 l -120.75,-322.5 c -6.38,-17.05 -8.82,-34.05 -7.3,-51 1.51,-16.96 6.36,-32.95 14.57,-47.98 8.2,-15.02 19.1,-28.31 32.69,-39.84 13.61,-11.53 29.68,-20.24 48.22,-26.1 18.55,-5.88 37.04,-8.13 55.46,-6.73 18.44,1.38 35.79,5.72 52.02,13.01 16.25,7.28 30.64,17.18 43.19,29.69 12.53,12.5 22,27.28 28.37,44.33 z m -196.37,-380.93 c -2.31,-6.21 -7.03,-11.21 -14.11,-15.03 -7.1,-3.83 -15.3,-6.44 -24.62,-7.83 -9.32,-1.38 -19.61,-1.59 -30.88,-0.62 -11.26,0.97 -21.95,3.05 -32.07,6.26 -17.42,5.51 -32.7,13.82 -45.83,24.91 -13.13,11.1 -23.66,23.69 -31.6,37.75 -7.92,14.08 -12.74,29.34 -14.44,45.78 -1.71,16.44 0.44,32.66 6.44,48.68 l 121.91,325.6 c 3.09,8.27 7.64,16.65 13.66,25.16 6,8.5 12.76,16.04 20.25,22.64 7.49,6.58 15.03,11.57 22.58,14.97 7.55,3.38 14.7,4 21.45,1.87 15.74,-4.98 20.89,-14.71 15.47,-29.19 -1.16,-3.09 -3.58,-6.24 -7.29,-9.4 -3.69,-3.15 -7.73,-6.79 -12.09,-10.9 -4.37,-4.11 -8.8,-8.79 -13.27,-14.01 -4.47,-5.24 -8.06,-11.47 -10.77,-18.71 l -120.75,-322.5 c -3.67,-9.81 -5.05,-19.78 -4.13,-29.9 0.93,-10.13 3.7,-19.53 8.31,-28.21 4.6,-8.68 11,-16.34 19.2,-22.99 8.2,-6.65 17.64,-11.66 28.31,-15.03 8.43,-2.67 16.27,-4 23.5,-3.98 7.24,0.02 13.82,0.39 19.75,1.11 5.93,0.73 11.25,1.5 15.96,2.33 4.7,0.82 9.03,0.6 12.96,-0.64 13.49,-4.28 17.52,-13.65 12.1,-28.12 z m -44.92,96.6 c -1.16,-3.09 -3.44,-5.41 -6.85,-6.93 -3.38,-1.53 -6.77,-1.75 -10.15,-0.68 -3.36,1.06 -6.07,3.07 -8.11,6.02 -2.04,2.97 -2.38,6.26 -1.02,9.87 l 120.74,322.5 c 3.1,8.27 9.15,10.98 18.13,8.13 3.94,-1.24 6.55,-3.51 7.82,-6.81 1.29,-3.3 1.35,-6.49 0.19,-9.6 z m 55.06,-19.17 c -2.71,-7.23 -7.14,-12.77 -13.28,-16.6 -6.16,-3.83 -13.45,-4.42 -21.88,-1.75 -8.43,2.67 -13.79,7.26 -16.06,13.76 -2.29,6.51 -2.07,13.38 0.64,20.61 l 120.74,322.51 c 2.71,7.23 2.4,12.68 -0.95,16.34 -3.34,3.66 -7.82,6.37 -13.44,8.16 -2.81,0.88 -5.8,1.7 -9,2.41 -3.18,0.73 -6.18,1.53 -8.99,2.42 -6.18,1.96 -10.66,5.11 -13.44,9.46 -2.77,4.34 -3.08,9.36 -0.96,15.04 3.87,10.34 11.36,16.49 22.47,18.46 11.11,1.98 21.44,1.45 31,-1.57 19.1,-6.05 32.94,-17.36 41.49,-33.96 8.56,-16.58 9.57,-33.66 2.98,-51.23 z m 881.24,-169.45 c 18.5,34.89 29.68,70.92 33.53,108.11 3.85,37.19 1.2,73.36 -7.95,108.47 -9.14,35.12 -24.65,68.53 -46.53,100.24 -21.86,31.7 -49.28,59.5 -82.23,83.4 l -303.67,-572.58 c 40.77,-9.17 81.48,-11.92 122.1,-8.25 40.63,3.66 79.01,13.06 115.13,28.18 36.12,15.11 68.8,35.59 98.03,61.39 29.22,25.82 53.09,56.15 71.59,91.04 z m -114.59,51.4 c -17.46,-32.91 -42.03,-59.3 -73.72,-79.15 l 96.15,181.3 c 1.25,-17.59 -0.22,-35.03 -4.42,-52.3 -4.2,-17.28 -10.2,-33.9 -18.01,-49.85 z m 47.6,-125.35 c -2.35,-4.42 -6.88,-9.53 -13.59,-15.34 -6.72,-5.8 -14.03,-11.49 -21.95,-17.06 -7.92,-5.58 -15.76,-10.72 -23.56,-15.43 -7.79,-4.72 -14.06,-8.45 -18.81,-11.18 -39.12,-21.38 -79.5,-34.88 -121.18,-40.51 -41.67,-5.64 -86.08,-4.27 -133.22,4.1 l 296.64,559.33 13.67,-86.41 -229.41,-432.58 c 41.47,0.86 78.61,7.61 111.43,20.26 32.83,12.65 63.98,32.42 93.47,59.34 4.74,3.96 10.02,6.74 15.85,8.39 5.83,1.65 12.22,0.9 19.17,-2.21 14.96,-6.71 18.79,-16.94 11.49,-30.7 z m 20.82,140.28 c -4.69,-8.85 -9.35,-13.9 -13.99,-15.18 -4.64,-1.25 -9.89,-0.57 -15.77,2.06 -6.95,3.12 -11.12,8.03 -12.52,14.74 -1.4,6.72 -1.62,15.32 -0.68,25.85 0.95,10.52 2.29,22.69 4,36.52 1.71,13.83 2.74,29.18 3.1,46.05 l 0.39,111.11 c 10.8,-14.57 19.75,-32.27 26.89,-53.11 7.14,-20.83 12.34,-41.87 15.64,-63.11 3.27,-21.24 4.36,-41.33 3.23,-60.3 -1.13,-18.95 -4.56,-33.83 -10.29,-44.63 z m 56.45,-416.88 199.21,-105.77 63.75,101.54 -88.8,47.15 131.05,208.76 63.31,-33.62 63.75,101.53 -63.31,33.61 4.46,7.11 88.79,-47.15 63.75,101.54 -199.21,105.77 z m 326.93,510.91 19.58,-67.2 -266.13,-423.9 91.88,-48.78 19.58,-67.21 -184.52,97.98 z m -39.4,-187.37 58.68,-31.15 19.59,-67.2 -58.69,31.15 z m 68.21,108.64 83.38,-44.27 19.58,-67.21 -83.38,44.27 z m 371.62,-734.07 -29.56,19.76 -74.94,-94.86 132.72,-88.67 384.11,486.21 -103.15,68.92 z m -65.58,-34.21 81.51,-54.46 11.11,-68.23 -124.06,82.89 z m 68.87,29.99 307.08,388.7 11.83,-68.71 -307.07,-388.7 z"
   id="path30"
   inkscape:connector-curvature="0"
   style="fill:#5e0f0d;fill-rule:nonzero" />&#10;   <path
   class="fil0"
   d="m 15696.13,17873.6 c 12.87,13.62 22.06,28.54 27.57,44.79 5.51,16.24 7.71,32.75 6.65,49.54 -1.06,16.78 -5.55,32.86 -13.45,48.25 -7.91,15.36 -19.27,28.97 -34.08,40.81 -15.25,12.19 -31.91,20.8 -50,25.83 -18.07,5.04 -36.22,6.88 -54.44,5.52 -18.23,-1.37 -35.78,-5.98 -52.66,-13.85 -16.89,-7.87 -31.77,-18.61 -44.63,-32.22 l 96.21,-76.92 2.93,3.1 c 5.45,5.77 11.77,5.78 18.95,0.05 4.49,-3.58 5.92,-7.28 4.32,-11.06 -1.61,-3.78 -3.98,-7.33 -7.09,-10.63 l -5.85,-6.18 c -9.87,7.89 -19.12,14.55 -27.74,20.01 -8.63,5.45 -19.01,10.11 -31.09,13.99 -27.53,7.52 -54.85,7.99 -81.95,1.4 -27.09,-6.59 -50,-19.77 -68.72,-39.57 l -141.54,-149.75 c -12.87,-13.61 -22.06,-28.54 -27.56,-44.77 -5.51,-16.26 -7.52,-32.75 -6.02,-49.51 1.48,-16.75 6.18,-32.83 14.08,-48.2 7.92,-15.38 19.27,-28.98 34.07,-40.81 14.81,-11.84 31.04,-20.3 48.69,-25.36 17.66,-5.06 35.51,-7.01 53.54,-5.85 18.02,1.16 35.4,5.37 52.12,12.65 16.72,7.27 31.51,17.72 44.38,31.33 z m -295.71,-216.61 c -3.9,-4.13 -9.39,-8.07 -16.48,-11.8 -7.08,-3.76 -14.55,-6.66 -22.4,-8.72 -7.85,-2.05 -15.59,-2.75 -23.24,-2.07 -7.62,0.67 -14.13,3.15 -19.52,7.47 -5.82,4.65 -8.98,10.26 -9.48,16.81 -0.5,6.56 1.78,12.52 6.84,17.88 4.29,4.54 8.31,7.12 12.06,7.75 3.74,0.63 7.53,0.68 11.36,0.14 3.83,-0.52 7.43,-0.67 10.78,-0.46 3.36,0.21 6.79,2.18 10.29,5.89 l 141.55,149.75 c 3.12,3.3 4.48,7.46 4.11,12.47 -0.38,5.01 -2.37,8.95 -5.96,11.83 -3.14,2.5 -6.52,4.12 -10.16,4.86 -3.63,0.73 -7.03,2.36 -10.17,4.87 -5.38,4.29 -8.33,9.92 -8.87,16.86 -0.52,6.95 1.56,12.89 6.24,17.83 3.9,4.13 8.44,6.66 13.64,7.56 5.19,0.92 10.37,0.77 15.51,-0.44 5.16,-1.22 10.36,-3.21 15.63,-5.97 5.26,-2.77 9.69,-5.58 13.27,-8.45 14.81,-11.84 22.92,-27 24.32,-45.51 1.4,-18.51 -4.32,-34.56 -17.19,-48.18 z m -44.41,35.51 c -1.95,-2.07 -4.92,-3.13 -8.92,-3.19 -4,-0.07 -7.11,0.8 -9.35,2.59 -2.69,2.15 -4.39,4.95 -5.07,8.39 -0.68,3.45 0.14,6.4 2.48,8.87 l 142.72,151 c 2.34,2.46 5.5,3.74 9.51,3.8 3.99,0.07 7.35,-0.98 10.03,-3.12 2.69,-2.16 4.08,-5.08 4.14,-8.75 0.07,-3.68 -0.87,-6.54 -2.82,-8.61 z m -12.3,-104.25 c -5.06,-5.35 -11.59,-8.1 -19.59,-8.22 -8,-0.14 -16.1,1.28 -24.33,4.23 -8.23,2.96 -16.21,6.61 -23.91,10.97 -7.7,4.34 -13.8,8.31 -18.29,11.89 -13.89,11.12 -24.67,24.08 -32.33,38.89 -7.66,14.82 -12.3,30.12 -13.91,45.89 -1.63,15.79 0.12,31.59 5.23,47.42 5.12,15.84 13.72,30.13 25.81,42.92 l 143.89,152.23 c 3.9,4.12 9.33,8.83 16.3,14.12 6.97,5.3 14.42,9.84 22.35,13.64 7.92,3.8 15.74,6.25 23.45,7.32 7.71,1.08 14.48,-0.71 20.33,-5.38 5.37,-4.29 8.32,-9.92 8.85,-16.86 0.54,-6.94 -1.55,-12.88 -6.23,-17.83 -5.45,-5.78 -12.51,-9.91 -21.16,-12.41 -8.68,-2.5 -16.9,-7.87 -24.7,-16.12 l -141.54,-149.75 c -7.41,-7.83 -12.74,-16.6 -16.01,-26.31 -3.26,-9.7 -4.52,-19.37 -3.79,-29.01 0.73,-9.64 3.54,-18.95 8.44,-27.93 4.89,-8.99 11.6,-16.88 20.12,-23.69 7.63,-6.1 15.74,-10.23 24.32,-12.39 8.6,-2.16 16.26,-5.93 22.99,-11.31 4.93,-3.95 7.96,-9.07 9.07,-15.4 1.11,-6.32 -0.68,-11.96 -5.36,-16.91 z m 246.79,344.82 6.44,6.81 c 4.67,4.95 8.38,10.32 11.09,16.11 2.72,5.79 0.93,11.2 -5.34,16.22 -2.25,1.8 -5.94,3.3 -11.08,4.52 -5.83,4.67 -9.02,10.46 -9.54,17.4 -0.53,6.95 1.73,13.09 6.81,18.46 7.41,7.84 15.51,10.77 24.29,8.83 8.78,-1.96 16.99,-5.99 24.61,-12.08 15.25,-12.19 23.48,-27.45 24.65,-45.78 1.18,-18.33 -4.85,-34.51 -18.1,-48.53 l -75.46,-79.83 z m -17.13,100.6 0.71,-59.23 -85.44,68.32 z m 464.05,-489.38 c 14.12,12.53 24.69,26.65 31.72,42.39 7.02,15.74 10.78,32.02 11.32,48.83 0.52,16.8 -2.42,33.19 -8.84,49.14 -6.42,15.94 -16.44,30.41 -30.07,43.39 -13.63,12.97 -28.99,22.69 -46.11,29.15 -17.1,6.46 -34.91,9.84 -53.39,10.13 -18.5,0.3 -36.41,-2.51 -53.76,-8.41 -17.35,-5.91 -33.08,-15.12 -47.19,-27.66 l -154.55,-137.26 c -20.1,-17.84 -33.33,-39.47 -39.69,-64.88 -26.99,-4.21 -50.73,-15.43 -71.25,-33.65 -14.12,-12.53 -24.79,-26.76 -32.03,-42.69 -7.23,-15.92 -10.91,-32.29 -11.02,-49.11 -0.11,-16.81 2.94,-33.29 9.15,-49.43 6.21,-16.14 16.14,-30.7 29.75,-43.68 13.64,-12.97 29.09,-22.79 46.41,-29.45 17.32,-6.65 35.12,-10.03 53.41,-10.13 18.27,-0.1 36.1,3 53.46,9.29 17.35,6.29 33.08,15.71 47.19,28.24 20.52,18.22 33.54,39.66 39.05,64.31 27.83,4.96 51.8,16.37 71.89,34.21 z m -363.04,-259.74 c -6,-5.32 -13.61,-7.71 -22.84,-7.18 -9.24,0.54 -18.76,2.72 -28.56,6.55 -9.81,3.83 -18.97,8.42 -27.49,13.78 -8.5,5.35 -15.04,10.2 -19.58,14.52 -12.8,12.19 -22.51,26.17 -29.15,41.93 -6.65,15.76 -9.9,31.85 -9.81,48.28 0.1,16.43 3.57,32.42 10.37,47.96 6.82,15.55 16.84,29.21 30.1,40.98 3.85,3.42 8.22,6.92 13.13,10.51 4.9,3.6 10.11,6.51 15.6,8.74 5.51,2.24 10.99,3.11 16.45,2.64 5.45,-0.48 10.66,-3.08 15.61,-7.79 4.95,-4.73 7.47,-10.46 7.56,-17.22 0.08,-6.77 -2.45,-12.44 -7.57,-16.99 -3.43,-3.04 -7.15,-5.58 -11.18,-7.65 -4.03,-2.06 -7.76,-4.61 -11.18,-7.65 -8.13,-7.2 -14.27,-15.52 -18.44,-24.92 -4.17,-9.41 -6.36,-19.14 -6.55,-29.18 -0.19,-10.05 1.73,-19.94 5.74,-29.67 4.03,-9.72 9.95,-18.33 17.79,-25.8 5.79,-5.5 11.81,-9.66 18.06,-12.47 6.24,-2.8 12.31,-4.83 18.16,-6.08 5.87,-1.26 11.1,-2.5 15.69,-3.73 4.61,-1.24 8.15,-3.03 10.63,-5.39 4.95,-4.72 7.04,-10.45 6.29,-17.21 -0.76,-6.75 -3.71,-12.4 -8.83,-16.96 z m 8.32,106.56 c -6.41,-5.69 -12.92,-5.4 -19.53,0.89 -6.59,6.29 -6.69,12.29 -0.3,17.98 6.85,6.07 13.58,5.97 20.18,-0.32 6.61,-6.29 6.49,-12.48 -0.35,-18.55 z m 38.95,-40.64 c -6.41,-5.7 -13.19,-8.88 -20.35,-9.54 -7.16,-0.65 -14.05,2.16 -20.65,8.46 -6.2,5.9 -8.4,11.54 -6.62,16.92 1.78,5.39 4.62,10.75 8.51,16.1 3.88,5.35 6.92,10.52 9.12,15.5 2.19,5.01 0.61,10.05 -4.76,15.17 -2.07,1.96 -4.66,3.64 -7.79,5.04 -3.11,1.41 -5.72,3.09 -7.78,5.06 -4.95,4.72 -6.94,10.54 -5.98,17.5 0.98,6.93 3.81,12.49 8.52,16.67 8.56,7.59 17.52,9.48 26.9,5.66 9.39,-3.83 17.59,-9.08 24.61,-15.77 6.6,-6.29 11.51,-13.7 14.71,-22.26 3.19,-8.57 4.61,-17.38 4.22,-26.45 -0.37,-9.09 -2.54,-17.85 -6.48,-26.28 -3.94,-8.45 -9.34,-15.7 -16.18,-21.78 z m 118,37.53 c -4.28,-3.79 -9.38,-6.42 -15.29,-7.87 -5.91,-1.45 -11.61,-2.71 -17.09,-3.78 l -58.22,55.44 c 8.75,-3.62 17.54,-5.5 26.37,-5.64 8.82,-0.14 17.44,0.1 25.86,0.74 8.42,0.64 16.2,0.71 23.34,0.21 7.13,-0.51 13.18,-3.11 18.13,-7.83 5.37,-5.12 7.47,-10.47 6.32,-16.06 -1.15,-5.58 -4.3,-10.65 -9.42,-15.21 z m -44.72,102.78 c -6.84,-6.07 -13.57,-5.97 -20.17,0.32 -6.6,6.29 -6.49,12.48 0.35,18.55 l 154.55,137.26 c 6.85,6.08 13.57,5.96 20.17,-0.32 6.61,-6.29 6.49,-12.47 -0.35,-18.55 z m 38.97,-39.48 c -7.69,-6.83 -15.76,-11.53 -24.23,-14.11 -8.45,-2.57 -16.6,-0.12 -24.45,7.36 -5.37,5.11 -7.98,10.56 -7.87,16.36 0.11,5.8 2.72,10.98 7.85,15.53 l 167.38,148.66 c 5.99,5.3 8.49,9.81 7.51,13.5 -0.99,3.68 -3.12,7.1 -6.43,10.24 -1.65,1.58 -3.4,3.06 -5.27,4.44 -1.86,1.39 -3.62,2.86 -5.28,4.44 -5.37,5.11 -8.51,10.86 -9.44,17.25 -0.92,6.39 1.6,12.25 7.58,17.56 8.55,7.6 17.42,9.77 26.61,6.54 9.18,-3.25 17.29,-8.21 24.31,-14.89 14.03,-13.36 20.78,-29.22 20.2,-47.58 -0.55,-18.36 -8.09,-33.98 -22.63,-46.9 z m -182.7,73.68 c 1.49,11.96 5.91,23.68 13.27,35.15 7.37,11.48 15.54,21.21 24.52,29.18 l 157.13,139.55 c 3.84,3.41 8.74,7.2 14.7,11.36 5.97,4.15 12.45,7.62 19.42,10.41 7,2.79 13.85,4.13 20.58,4.01 6.73,-0.1 12.56,-2.52 17.51,-7.23 5.79,-5.51 8.72,-11.26 8.82,-17.25 0.09,-5.99 -2.85,-11.64 -8.84,-16.96 -5.12,-4.56 -11.07,-7.94 -17.84,-10.15 -6.77,-2.22 -12.93,-5.78 -18.49,-10.72 l -154.56,-137.27 c -12.39,-11 -20.21,-24.21 -23.45,-39.63 -3.23,-15.41 -1.63,-30.51 4.83,-45.3 z m 674.13,-335.76 c 15.87,10.6 28.48,23.24 37.82,37.93 9.34,14.69 15.53,30.32 18.6,46.9 3.06,16.57 2.63,33.17 -1.32,49.79 -3.94,16.62 -11.68,32.22 -23.22,46.82 -11.52,14.59 -25.27,26.18 -41.23,34.77 -15.97,8.59 -33.1,14.2 -51.35,16.87 -18.27,2.66 -36.43,2.17 -54.51,-1.46 -18.07,-3.63 -35.04,-10.74 -50.91,-21.34 l -300.04,-200.49 c -15.87,-10.6 -28.47,-23.24 -37.8,-37.93 -9.34,-14.68 -15.34,-30.34 -17.98,-46.98 -2.66,-16.63 -2.02,-33.27 1.93,-49.88 3.95,-16.62 11.68,-32.22 23.22,-46.82 11.53,-14.59 25.47,-26.21 41.86,-34.86 16.38,-8.65 33.5,-14.27 51.35,-16.87 17.84,-2.6 35.96,-1.82 54.33,2.36 18.38,4.17 35.51,11.55 51.38,22.16 l -74.95,94.85 c -3.84,-2.56 -7.66,-3.78 -11.46,-3.6 -3.8,0.16 -7.1,2.01 -9.9,5.55 -3.84,4.86 -4.18,9.02 -1.04,12.46 3.14,3.46 6.64,6.48 10.48,9.05 l 5.78,3.86 c 1.4,-1.77 2.59,-3.52 3.57,-5.23 0.97,-1.7 2.18,-3.44 3.57,-5.2 11.53,-14.6 25.27,-26.19 41.25,-34.78 15.97,-8.59 33.07,-14.21 51.35,-16.87 18.25,-2.66 36.43,-2.18 54.49,1.45 18.08,3.63 35.04,10.74 50.91,21.35 z m -382.15,-162.1 c -5.94,0.08 -11.58,0.7 -16.9,1.88 -5.34,1.16 -9.93,4.17 -13.78,9.04 -4.18,5.3 -5.57,11.48 -4.14,18.51 1.42,7.03 5.02,12.48 10.78,16.33 6.26,4.18 11.69,5.44 16.3,3.79 4.61,-1.65 10.16,-0.99 16.62,1.99 z m 152.29,31.82 c -3.37,-2.25 -7.03,-3.67 -10.96,-4.28 -11.8,-1.8 -23.62,-1.94 -35.49,-0.4 -11.87,1.53 -23.46,4.59 -34.81,9.18 -11.33,4.58 -21.81,10.41 -31.44,17.49 -9.64,7.07 -17.77,14.82 -24.41,23.22 -1.39,1.77 -2.58,3.5 -3.56,5.21 -1,1.72 -2.18,3.44 -3.58,5.22 l 36.23,76.9 c -4.51,-21.26 0.21,-40.73 14.18,-58.42 8.73,-11.05 18.19,-18.59 28.34,-22.61 10.16,-4.02 19.84,-6.51 29.04,-7.46 9.2,-0.95 17.47,-1.67 24.83,-2.15 7.37,-0.48 12.97,-3.16 16.81,-8.03 4.2,-5.3 5.83,-11.32 4.89,-18.02 -0.95,-6.71 -4.31,-12 -10.07,-15.85 z m -188.3,-74.13 c -5.76,-3.85 -12.36,-5.04 -19.76,-3.57 -7.41,1.47 -14.56,4.46 -21.43,9 -6.87,4.51 -13.33,9.67 -19.37,15.43 -6.02,5.77 -10.6,10.64 -13.75,14.62 -10.48,13.27 -17.73,28.02 -21.74,44.26 -4,16.24 -4.95,32.32 -2.86,48.25 2.1,15.94 7.59,31.08 16.45,45.45 8.86,14.36 20.73,26.53 35.64,36.49 l 302.93,202.41 c 6.73,4.5 15.95,8.63 27.67,12.39 11.71,3.79 24.08,6.48 37.14,8.1 13.04,1.62 25.25,1.51 36.64,-0.35 11.38,-1.85 19.86,-6.31 25.45,-13.39 4.55,-5.75 6.61,-11.63 6.22,-17.64 -0.39,-6 -3.72,-11.1 -9.97,-15.27 -4.33,-2.89 -9.64,-4.07 -15.93,-3.55 -6.3,0.53 -13.41,1.17 -21.37,1.93 -7.94,0.77 -16.52,0.46 -25.69,-0.95 -9.18,-1.4 -19.06,-5.63 -29.64,-12.7 l -300.05,-200.49 c -9.13,-6.1 -16.35,-13.46 -21.66,-22.08 -5.32,-8.62 -8.92,-17.78 -10.8,-27.49 -1.89,-9.7 -1.66,-19.51 0.67,-29.44 2.33,-9.93 6.81,-19.09 13.45,-27.5 5.59,-7.07 12.34,-12.36 20.25,-15.86 7.9,-3.49 14.3,-8.35 19.2,-14.53 4.19,-5.32 5.28,-11.34 3.26,-18.09 -2.01,-6.75 -5.65,-11.89 -10.95,-15.43 z m 172.29,185.06 c -3.84,-2.58 -7.91,-3.94 -12.2,-4.1 -4.27,-0.16 -7.82,1.52 -10.61,5.06 -5.25,6.64 -4.01,12.53 3.67,17.67 l 173.83,116.14 c 7.69,5.14 14.16,4.4 19.4,-2.24 5.59,-7.07 4.54,-13.17 -3.15,-18.32 z m 31.7,-45.71 c -6.25,-4.18 -12.69,-5.1 -19.3,-2.77 -6.63,2.33 -11.86,5.93 -15.7,10.8 -4.19,5.31 -6.08,10.96 -5.69,16.97 0.39,6.01 3.72,11.1 9.97,15.28 l 173.1,115.66 c 4.33,2.89 6.92,6.82 7.77,11.79 0.86,4.95 -0.29,9.42 -3.43,13.4 -2.79,3.53 -5.32,5.58 -7.57,6.1 -2.24,0.52 -4.4,0.93 -6.49,1.24 -2.07,0.29 -4.4,0.93 -7,1.89 -2.61,0.98 -5.48,3.45 -8.61,7.43 -4.55,5.75 -6.38,11.78 -5.51,18.11 0.88,6.33 4.45,11.58 10.69,15.76 5.29,3.54 11.2,5.12 17.74,4.75 6.53,-0.35 12.98,-1.79 19.36,-4.28 6.39,-2.5 12.39,-5.92 18.02,-10.26 5.64,-4.34 10.02,-8.5 13.17,-12.48 11.87,-15.04 16.16,-31.61 12.81,-49.71 -3.32,-18.11 -13.16,-32.62 -29.5,-43.54 z"
   id="path32"
   inkscape:connector-curvature="0"
   style="fill:#5e0f0d;fill-rule:nonzero" />&#10;   <path
   class="fil1"
   d="m 4921.84,14806.53 c 0,-377.1 74.86,-715.66 191.47,-1053.12 25.42,-73.54 55.9,-144.71 90.65,-214.16 35,-69.94 64.74,-134.55 101.66,-203.13 72.8,-135.24 152.7,-248.77 237.69,-371.92 50.54,-73.24 106.83,-142.02 163.31,-209.22 57.15,-68 114.05,-139.27 178.26,-202.73 63.39,-62.65 122.52,-132.91 190.92,-190.08 242.26,-202.51 454.78,-394.73 733.7,-561.7 190.99,-114.34 381.77,-224.15 581.78,-324.16 140.53,-70.26 276.3,-130.47 421.31,-188.29 40.92,-16.31 67.66,-27.84 109.61,-42.79 l 571.49,-190.5 c 374.94,-117.06 887.25,-207.49 1278.76,-245.24 86.21,-8.31 187.59,-23.72 280.32,-24.48 132.73,-1.08 258.26,-17.62 440.33,-16.88 58.87,0.25 82.61,-9.07 143.82,-8.97 57.7,0.09 77.63,9.21 135.18,8.97 50.89,-0.2 101.78,0.01 152.66,-0.25 176.89,-0.91 673.46,51.24 839.64,74.76 448.44,63.47 834.22,147.64 1239.92,284.08 80.43,27.04 147.69,52.46 226.52,78.27 223.61,73.22 435.72,167.57 643.08,271.32 70.7,35.38 136.4,66.68 200.75,104.05 l 385.52,224.08 c 153.64,93.67 298.53,202.68 440.27,313.27 l 124.72,103.87 c 18.76,15.76 23.3,16.14 41.93,34.28 l 236.97,220.23 c 304.82,304.8 586.28,673.69 757.45,1071.34 97.72,227.03 173.71,435.71 224.68,689.72 25.17,125.41 50.07,275.25 48.63,408.57 -0.67,61.53 8.92,84.58 8.92,143.88 0,90.75 -13.7,192.22 -17.39,279.34 -3.54,83.53 -22.8,186.91 -38.74,266.06 -36.45,180.96 -77.26,317.44 -133.7,475.9 -40.91,114.86 -85.27,213.66 -137.94,319.26 -50.95,102.14 -103.94,196.29 -165.32,291.88 -117.96,183.72 -250.99,348.89 -390.34,515.59 -38.72,46.33 -179.71,194.11 -224.05,233.15 l -202.72,178.29 c -16.99,14.37 -21.22,21.54 -39.94,36.25 -60.21,47.33 -110.1,86.81 -170.68,134.12 -227.87,177.91 -477.24,343.67 -737.45,473.28 -37.81,18.83 -59.43,34.28 -98.67,53.74 -606.33,300.71 -1266.11,530.77 -1945.63,645.16 -86.25,14.52 -177.87,33.52 -262.03,42.77 -91.14,10.02 -179.91,26.54 -270.49,34.31 -42.79,3.67 -93.7,7.1 -138.83,13.58 -83.28,11.94 -346.67,29.51 -428.01,29.18 -105.46,-0.43 -204.14,0.54 -297.26,8.12 -45.32,3.68 -79.2,-8.75 -134.62,-8.43 l -372.69,-8.31 c -178.2,-9.51 -454.06,-39.74 -621.78,-64.02 -623.07,-90.22 -1331.43,-266.74 -1904.09,-534.31 -138.45,-64.69 -276.3,-126.76 -412.13,-197.47 l -98.71,-53.69 c -35.25,-18.87 -62.29,-38.33 -95.91,-56.49 -190,-102.59 -373.7,-229.94 -545.59,-360.34 -166.01,-125.93 -477.77,-389.34 -603.38,-539.62 l -243.14,-290.26 c -25.26,-32.35 -42.69,-52.6 -65.83,-86.56 -168.25,-246.95 -329.81,-504.3 -431.2,-788 -105.19,-294.32 -193.66,-624.76 -193.66,-1025.55 z m 4523.95,-2605.51 v -959.62 h 330.44 c 74.63,0 131.6,4.69 170.93,13.85 54.96,12.52 101.88,35.53 140.75,68.6 50.5,42.89 88.48,97.41 113.51,163.99 25.24,66.58 37.75,142.55 37.75,228.12 0,72.84 -8.49,137.41 -25.69,193.71 -16.98,56.31 -38.65,103 -65.46,139.87 -26.59,36.86 -55.64,65.91 -87.36,86.91 -31.51,21.23 -69.71,37.31 -114.4,48.26 -44.91,10.95 -96.29,16.31 -154.16,16.31 z m 126.9,-113.28 h 204.89 c 63.22,0 113.05,-5.81 149.02,-17.65 35.97,-11.84 64.57,-28.37 86.02,-49.82 30.16,-29.94 53.62,-70.61 70.38,-121.32 16.76,-50.94 25.25,-112.39 25.25,-185 0,-100.32 -16.54,-177.4 -49.38,-231.25 -33.07,-54.07 -73.06,-90.04 -120.2,-108.36 -33.97,-13.18 -88.93,-19.66 -164.22,-19.66 h -201.76 z m 821.17,-354.13 c 0,-159.3 42.68,-283.97 128.25,-374.01 85.57,-90.05 195.95,-135.18 331.34,-135.18 88.48,0 168.47,21.23 239.52,63.46 71.05,42.45 125.34,101.43 162.65,177.17 37.31,75.52 55.86,161.54 55.86,257.39 0,97.41 -19.44,184.55 -58.76,261.19 -39.33,76.85 -94.96,134.95 -166.9,174.49 -72.17,39.55 -149.7,59.21 -233.04,59.21 -90.49,0 -171.14,-21.67 -242.19,-65.46 -71.28,-43.57 -125.12,-103.23 -161.76,-178.75 -36.65,-75.29 -54.97,-155.28 -54.97,-239.51 z m 130.93,2.01 c 0,115.74 31.06,206.67 93.17,273.25 62.34,66.58 140.31,99.87 234.15,99.87 95.63,0 174.27,-33.51 235.94,-100.76 61.67,-67.25 92.72,-162.66 92.72,-286.21 0,-77.98 -13.4,-146.12 -39.77,-204.44 -26.36,-58.31 -65.01,-103.44 -115.73,-135.62 -50.94,-31.95 -107.92,-48.03 -171.15,-48.03 -90.04,0 -167.34,30.83 -232.14,92.72 -64.79,61.67 -97.19,164.89 -97.19,309.22 z m 925.96,157.07 119.75,-10.5 c 5.59,48.04 18.77,87.36 39.55,118.19 20.78,30.84 52.95,55.64 96.52,74.63 43.57,18.99 92.72,28.37 147.24,28.37 48.48,0 91.15,-7.15 128.24,-21.45 37.09,-14.52 64.8,-34.18 82.9,-59.2 18.09,-25.25 27.25,-52.51 27.25,-82.23 0,-30.16 -8.71,-56.3 -26.36,-78.87 -17.43,-22.56 -46.25,-41.33 -86.24,-56.52 -25.92,-10.06 -82.67,-25.7 -170.93,-46.92 -88.03,-21.23 -149.91,-41.11 -185.22,-59.88 -45.8,-23.91 -79.98,-53.85 -102.55,-89.37 -22.34,-35.53 -33.51,-75.3 -33.51,-119.53 0,-48.26 13.63,-93.62 41.11,-135.62 27.48,-42.23 67.7,-74.18 120.42,-96.08 52.96,-21.67 111.49,-32.62 176.06,-32.62 71.28,0 133.84,11.4 188.35,34.41 54.3,22.79 96.08,56.53 125.35,100.99 29.04,44.46 44.9,94.96 47.14,151.26 l -121.77,9.16 c -6.7,-60.55 -28.82,-106.58 -66.58,-137.41 -37.76,-31.05 -93.39,-46.47 -167.12,-46.47 -76.86,0 -132.72,14.07 -168.02,42.23 -35.08,28.15 -52.73,62.11 -52.73,101.66 0,34.63 12.51,63 37.31,85.12 24.58,22.34 88.26,45.13 191.48,68.37 103.22,23.46 174.05,43.79 212.48,61.22 55.86,25.92 97.19,58.54 123.78,97.86 26.59,39.55 39.77,85.13 39.77,136.51 0,51.17 -14.53,99.2 -43.79,144.34 -29.27,45.13 -71.28,80.21 -126.02,105.45 -54.74,25.03 -116.4,37.54 -184.77,37.54 -86.91,0 -159.75,-12.51 -218.29,-37.98 -58.76,-25.25 -104.79,-63.23 -138.3,-114.17 -33.29,-50.72 -50.94,-108.37 -52.5,-172.49 z m 98.49,1007.61 -281.79,491.51 -715.53,404.62 -20.2,-170.23 c -29.02,42.02 -56.63,85.03 -82.84,128.8 -30.06,50.21 -61.64,104.37 -85.43,160.1 -152.12,356.32 -192.28,545.44 -192.28,942.24 0,73.18 5.19,146.52 15.05,219.55 l 161.56,-292.57 653.41,596.47 47.92,828.93 -306.89,-8.43 c 97.32,101.56 203.65,191.54 316.25,266.4 57.53,38.25 176.07,113.18 238.76,142.24 171.13,79.36 257.64,112.17 457.1,160.97 73.9,18.08 164.09,32.58 257.37,41.36 l -133.98,-125.01 938.02,-426.16 563.62,181.38 -7.05,9 c 92.95,-64.36 177.41,-133.59 246.9,-203.48 127.57,-128.31 240.51,-263.17 332.97,-420.56 57.4,-97.72 108.52,-203.64 151.14,-314.52 l 9.78,-600.13 113.48,-261.08 -52.34,-376.91 c -33.22,-122.08 -81.34,-259.55 -133.69,-365.84 -128.61,-261.08 -277.68,-457.28 -484.76,-641.3 -13.4,-11.91 -26.94,-23.58 -40.58,-35.1 l -333.45,-50.65 -416.48,-352.23 c -324.1,-93.34 -671.18,-104.35 -1016.04,-26.44 -88.06,19.89 -187.32,50.45 -286.26,88.55 z m 2897.58,1878.56 v 13.69 c -1.04,32.65 -8.98,64.35 -8.52,107.07 4.18,386.94 -177.14,836.19 -384.28,1148.18 -135.46,204.01 -232.27,284.67 -392.48,437.26 -108.86,103.69 -290.46,211.61 -417.36,285.37 -125.18,72.76 -363.54,154.68 -504.19,190.06 -71.31,17.94 -277.97,52.58 -427.72,64.31 h -142.98 c -574.3,-18.43 -1087.3,-227.84 -1534.58,-641.35 -192.18,-192.24 -323.91,-374.66 -452.36,-631.37 -55.07,-110.06 -113.9,-271.06 -144.97,-396.88 -73.46,-297.42 -69.41,-371.92 -69.41,-667.19 0,-312.25 113.91,-659.75 217.2,-875 76.11,-158.61 160.56,-283.37 265.25,-420.55 88.02,-115.34 170.53,-189.12 269.03,-281.29 376.83,-352.64 947.02,-565.22 1475.24,-565.22 592.8,29.19 1137.92,201.47 1589.62,654.05 84.01,56.22 309.04,375.36 363.27,474.92 122.11,224.14 168.9,332.36 236.64,601.56 59.15,235.09 39.32,287.88 61.65,489.26 0.49,4.44 0.8,8.8 0.95,13.12 z m -2445.35,-875.72 967.97,-69.54 487.73,798.29 -695.84,712.7 -877.73,-380.44 z m -4572.41,-28.04 h -444.48 c 81,-313.09 235.91,-553.86 464.73,-723.2 229.84,-168.45 501.19,-253.12 813.04,-253.12 227.82,0 439.43,44.98 636.86,135.82 196.43,89.96 348.3,212.55 456.64,365.13 107.33,153.46 160.99,313.97 160.99,480.66 0,327.2 -186.3,586.49 -559.9,777.87 209.58,74.08 381.71,182.56 516.37,325.44 189.33,201.96 284.51,427.74 284.51,677.33 0,215.2 -65.81,420.69 -196.42,616.48 -130.63,194.91 -307.81,346.6 -533.6,453.32 -225.78,106.71 -477.9,159.63 -756.33,159.63 -375.64,0 -689.51,-94.37 -940.62,-282.22 -251.1,-188.74 -415.12,-465.67 -492.07,-830.79 h 427.27 c 74.92,246.06 182.25,424.21 322.99,534.46 180.23,139.34 409.06,209.02 688.5,209.02 315.9,0 570.04,-82.03 762.41,-247.83 191.37,-164.92 287.56,-358.95 287.56,-581.2 0,-148.17 -47.59,-286.63 -143.78,-416.28 -96.18,-128.76 -224.77,-226.66 -385.76,-291.92 -160.99,-65.27 -411.08,-105.83 -749.26,-120.83 v -349.25 c 200.49,0 381.71,-30.87 545.74,-91.72 164.02,-60.85 283.5,-139.35 357.42,-233.71 74.92,-94.37 111.37,-198.44 111.37,-310.45 0,-164.92 -75.94,-307.8 -226.8,-428.62 -150.87,-120.83 -342.22,-180.8 -574.09,-180.8 -187.31,0 -350.32,45.86 -486,138.46 -136.68,91.73 -252.1,247.83 -347.29,468.32 z m 210.64,4065.49 v -681.83 h 92.55 l 358.14,535.3 v -535.3 h 86.52 v 681.83 h -92.55 l -358.14,-535.78 v 535.78 z m 613.88,0 261.94,-681.83 h 97.15 l 279.09,681.83 h -102.87 l -79.54,-206.53 h -285.11 l -74.77,206.53 z m 196.69,-280.04 h 231.3 l -71.28,-188.75 c -21.59,-57.31 -37.78,-104.46 -48.26,-141.45 -8.73,43.82 -20.95,87.16 -36.83,130.34 z m 637.71,280.04 -264.16,-681.83 h 97.79 l 177.16,495.3 c 14.29,39.69 26.2,76.99 35.72,111.6 10.64,-37.15 22.86,-74.3 36.83,-111.6 l 184.15,-495.3 h 92.08 l -267.02,681.83 z m 455.93,0 v -681.83 h 90.17 v 681.83 z m 250.67,0 v -681.83 h 302.26 c 60.8,0 107,6.19 138.59,18.41 31.59,12.23 56.83,33.82 75.88,64.77 18.89,31.12 28.26,65.41 28.26,102.87 0,48.42 -15.56,89.06 -46.99,122.24 -31.27,33.18 -79.69,54.29 -145.1,63.34 23.97,11.43 42.07,22.7 54.45,33.97 26.36,24.13 51.28,54.46 74.93,90.65 l 118.59,185.58 h -113.51 l -90.17,-141.92 c -26.35,-40.8 -48.1,-72.23 -65.24,-93.82 -16.99,-21.75 -32.23,-36.99 -45.72,-45.57 -13.5,-8.73 -27.15,-14.76 -41.12,-18.25 -10.32,-2.07 -26.99,-3.18 -50.32,-3.18 h -104.62 v 302.74 z m 90.17,-380.84 h 193.99 c 41.12,0 73.5,-4.29 96.68,-12.86 23.34,-8.57 40.96,-22.23 53.02,-40.96 12.07,-18.73 18.1,-39.05 18.1,-61.12 0,-32.22 -11.59,-58.73 -35.08,-79.53 -23.34,-20.8 -60.33,-31.12 -110.97,-31.12 h -215.74 z m 521.33,380.84 261.94,-681.83 h 97.15 l 279.09,681.83 h -102.87 l -79.54,-206.53 h -285.11 l -74.77,206.53 z m 196.69,-280.04 h 231.3 l -71.28,-188.75 c -21.59,-57.31 -37.78,-104.46 -48.26,-141.45 -8.73,43.82 -20.95,87.16 -36.83,130.34 z m 528.96,280.04 v -681.83 h 90.17 v 681.83 z m -23.34,-723.74 61.92,-130.18 H 11280 l -102.23,130.18 z m 1328.28,723.74 v -681.83 h 135.89 l 161.29,482.76 c 14.93,44.92 25.88,78.58 32.55,100.96 7.78,-24.76 19.84,-61.28 36.35,-109.38 l 163.2,-474.34 h 121.44 v 681.83 h -86.99 v -570.71 l -198.12,570.71 h -81.44 l -197.17,-580.39 v 580.39 z m 765.65,-219.08 85.09,-7.46 c 3.97,34.13 13.34,62.07 28.1,83.98 14.77,21.91 37.63,39.53 68.58,53.02 30.96,13.5 65.88,20.17 104.62,20.17 34.45,0 64.77,-5.08 91.12,-15.24 26.35,-10.32 46.04,-24.29 58.9,-42.07 12.86,-17.94 19.36,-37.31 19.36,-58.42 0,-21.43 -6.19,-40.01 -18.73,-56.04 -12.38,-16.04 -32.86,-29.37 -61.28,-40.17 -18.41,-7.14 -58.73,-18.25 -121.44,-33.33 -62.55,-15.08 -106.52,-29.21 -131.6,-42.55 -32.55,-16.98 -56.84,-38.26 -72.87,-63.5 -15.87,-25.24 -23.81,-53.5 -23.81,-84.93 0,-34.29 9.68,-66.52 29.21,-96.36 19.52,-30 48.1,-52.71 85.56,-68.26 37.63,-15.4 79.22,-23.18 125.1,-23.18 50.64,0 95.09,8.1 133.83,24.45 38.57,16.19 68.26,40.16 89.05,71.75 20.64,31.59 31.91,67.47 33.5,107.48 l -86.52,6.5 c -4.76,-43.02 -20.48,-75.72 -47.31,-97.63 -26.82,-22.06 -66.35,-33.02 -118.74,-33.02 -54.61,0 -94.3,10 -119.38,30.01 -24.92,20 -37.47,44.13 -37.47,72.23 0,24.6 8.89,44.77 26.52,60.48 17.46,15.88 62.7,32.07 136.04,48.58 73.35,16.67 123.67,31.11 150.98,43.5 39.68,18.41 69.05,41.59 87.94,69.53 18.89,28.1 28.26,60.48 28.26,97 0,36.35 -10.32,70.48 -31.11,102.55 -20.8,32.07 -50.65,56.99 -89.54,74.93 -38.89,17.78 -82.71,26.67 -131.29,26.67 -61.75,0 -113.5,-8.89 -155.09,-26.99 -41.76,-17.94 -74.46,-44.93 -98.27,-81.12 -23.65,-36.04 -36.2,-76.99 -37.31,-122.56 z m -2675.85,-7216.04 h 101.9 l 313.27,8.46 c 63.29,-0.15 99.95,8.34 152.08,8.79 63.57,0.54 96.91,7.99 152.71,8.15 165,0.46 411.77,36.74 580.63,62.84 380.06,58.75 711.4,130.37 1050.49,227.97 278.27,80.1 673.32,212.48 939.96,346.97 l 428.87,214.6 c 198.28,98.11 409.89,235.93 588.63,368.1 l 361.77,281.7 c 58.97,45.88 118.35,97.74 170.87,150.86 55.31,55.94 105.13,105.27 160.79,160.94 27.41,27.4 55.36,52.09 80.37,80.5 l 75.41,85.46 c 207.19,259.33 331.83,411.86 495.58,706.69 173.25,311.96 294.64,633.1 361.88,992.78 32.24,172.46 55.68,381.42 55.68,579.32 0.74,391.4 -63.22,752.17 -197.2,1089.73 -61.33,156.18 -119.93,305.93 -198.02,445.45 -114.39,204.36 -240.03,389.57 -379.98,576.76 l -221.81,260.78 c -25.02,28.41 -52.97,53.09 -80.37,80.49 -54.39,54.39 -104.93,109.34 -160.76,160.98 L 15227.9,17518 c -68.29,63.49 -144.43,121.25 -218.7,179.24 -120.98,94.46 -242.75,178.32 -371.03,263.96 -129.26,86.3 -265.06,169.16 -403.05,240.42 -142.11,73.38 -280.88,150.68 -429.31,214.16 -386.19,165.15 -777.97,310.91 -1187.76,412.43 -176.42,43.71 -345.81,80.56 -529.84,113.63 -231.66,41.64 -625.93,103.35 -850.29,106.44 -176.04,2.43 -365.12,23.22 -547.85,25.45 h -61.7 l -313.33,-8.41 c -100.24,0.52 -206.15,-16.05 -304.88,-16.85 -94.29,-0.77 -200.81,-16.77 -294.69,-27.04 -868.45,-95 -1944.45,-388.86 -2685.81,-819.39 -362.33,-210.41 -627.72,-370.12 -953.82,-646.38 l -248.07,-226.06 c -58.65,-44.76 -106.55,-110.95 -158.75,-162.98 -185.11,-184.5 -341.29,-405.35 -483.09,-626.05 -41.64,-64.8 -81.44,-133.43 -117.23,-204.5 -72.23,-143.48 -142.08,-283.38 -198.94,-436.06 -122.78,-329.7 -201.92,-720.44 -201.92,-1152.74 0,-409.45 94.61,-771.78 204.18,-1074.29 68.12,-188.05 157.17,-373.35 259.8,-544.53 20.9,-34.85 39.71,-67.8 60.95,-99.92 L 5318,12840.5 c 41.93,-62.95 91.43,-124.17 139.19,-182.55 24.91,-30.45 45.37,-60.66 72.13,-88.74 19.21,-20.16 21.5,-25.97 38.49,-46.17 l 189.94,-207.99 c 129.58,-134.63 273.77,-259.57 420.81,-375.06 208.77,-163.95 426.91,-317.27 655.06,-454.07 172.03,-103.15 346.87,-187.56 526.61,-277.72 606.95,-304.44 1425.44,-520.13 2085.34,-615.52 295.32,-42.69 746.84,-83.22 1080.9,-87.21 z"
   id="path34"
   style="fill:url(#id3)"
   inkscape:connector-curvature="0" />&#10;   <path
   class="fil2"
   style="fill:#fefefe"
   d="m 4921.84,14806.53 c 0,-377.1 74.86,-715.66 191.47,-1053.12 25.42,-73.54 55.9,-144.71 90.65,-214.16 35,-69.94 64.74,-134.55 101.66,-203.13 72.8,-135.24 152.7,-248.77 237.69,-371.92 50.54,-73.24 106.83,-142.02 163.31,-209.22 57.15,-68 114.05,-139.27 178.26,-202.73 63.39,-62.65 122.52,-132.91 190.92,-190.08 242.26,-202.51 454.78,-394.73 733.7,-561.7 190.99,-114.34 381.77,-224.15 581.78,-324.16 140.53,-70.26 276.3,-130.47 421.31,-188.29 40.92,-16.31 67.66,-27.84 109.61,-42.79 l 571.49,-190.5 c 374.94,-117.06 887.25,-207.49 1278.76,-245.24 86.21,-8.31 187.59,-23.72 280.32,-24.48 132.73,-1.08 258.26,-17.62 440.33,-16.88 58.87,0.25 82.61,-9.07 143.82,-8.97 57.7,0.09 77.63,9.21 135.18,8.97 50.89,-0.2 101.78,0.01 152.66,-0.25 176.89,-0.91 673.46,51.24 839.64,74.76 448.44,63.47 834.22,147.64 1239.92,284.08 50.66,17.03 96.1,33.42 142.5,49.67 l 116.68,-232.7 c -137.04,-47.2 -271.39,-89.03 -385.95,-122.01 -339.09,-97.6 -670.43,-169.22 -1050.49,-227.97 -168.86,-26.1 -415.63,-62.38 -580.63,-62.84 -55.8,-0.16 -89.14,-7.61 -152.71,-8.15 -52.13,-0.45 -88.79,-8.94 -152.08,-8.79 l -313.27,-8.46 h -101.9 c -334.06,3.99 -785.58,44.52 -1080.9,87.21 -659.9,95.39 -1478.39,311.08 -2085.34,615.52 -179.74,90.16 -354.58,174.57 -526.61,277.72 -228.15,136.8 -446.29,290.12 -655.06,454.07 -147.04,115.49 -291.23,240.43 -420.81,375.06 l -189.94,207.99 c -16.99,20.2 -19.28,26.01 -38.49,46.17 -26.76,28.08 -47.22,58.29 -72.13,88.74 -47.76,58.38 -97.26,119.6 -139.19,182.55 l -125.23,188.03 c -21.24,32.12 -40.05,65.07 -60.95,99.92 -102.63,171.18 -191.68,356.48 -259.8,544.53 -109.57,302.51 -204.18,664.84 -204.18,1074.29 0,432.3 79.14,823.04 201.92,1152.74 56.86,152.68 126.71,292.58 198.94,436.06 35.79,71.07 75.59,139.7 117.23,204.5 141.8,220.7 297.98,441.55 483.09,626.05 52.2,52.03 100.1,118.22 158.75,162.98 l 248.07,226.06 c 221.12,187.33 414.33,321.06 628.78,453.36 l 134.02,-208.64 c -131.12,-81.35 -258.3,-171.84 -379.59,-263.86 -166.01,-125.93 -477.77,-389.34 -603.38,-539.62 l -243.14,-290.26 c -25.26,-32.35 -42.69,-52.6 -65.83,-86.56 -168.25,-246.95 -329.81,-504.3 -431.2,-788 -105.19,-294.32 -193.66,-624.76 -193.66,-1025.55 z m 7527.13,-2238.47 -94.58,188.62 c -199.07,-14.29 -402.49,0.77 -605.15,46.55 -88.06,19.89 -187.32,50.45 -286.26,88.55 l 86.26,8.52 -281.79,491.51 -715.53,404.62 -20.2,-170.23 c -29.02,42.02 -56.63,85.03 -82.84,128.8 -30.06,50.21 -61.64,104.37 -85.43,160.1 -152.12,356.32 -192.28,545.44 -192.28,942.24 0,73.18 5.19,146.52 15.05,219.55 l 161.56,-292.57 653.41,596.47 3.86,66.78 -435.52,868.54 c -157.83,-168.69 -273.79,-337.42 -387.18,-564.03 -55.07,-110.06 -113.9,-271.06 -144.97,-396.88 -73.46,-297.42 -69.41,-371.92 -69.41,-667.19 0,-312.25 113.91,-659.75 217.2,-875 76.11,-158.61 160.56,-283.37 265.25,-420.55 88.02,-115.34 170.53,-189.12 269.03,-281.29 376.83,-352.64 947.02,-565.22 1475.24,-565.22 85.81,4.23 170.61,11.47 254.28,22.11 z m -2352.13,4690.7 -302.26,93.9 v -93.9 z m -462.76,143.75 -90.17,28.02 v -171.77 h 90.17 z m -276.46,85.89 -98.96,30.74 96.81,-260.38 h 92.08 z m -318.49,98.93 -78.56,24.41 -136.75,-352.98 h 97.79 z m -259.03,80.47 -213.3,66.26 25.32,-73.51 h 89.45 l -46.77,-123.86 41.87,-121.56 z m 112.97,-880.81 190.82,-553.89 c 162.14,-156.04 243.62,-336.67 243.62,-541.2 0,-43.97 -4.19,-87.09 -12.6,-129.37 l 188.11,-546.03 c 169.56,193.52 254.8,408.36 254.8,644.53 0,215.2 -65.81,420.69 -196.42,616.48 -130.63,194.91 -307.81,346.6 -533.6,453.32 -43.91,20.75 -88.83,39.47 -134.73,56.16 z m 595.63,-3112.34 -814.66,1268.3 c -155.62,-41.67 -364.2,-68.5 -625.33,-80.08 v -349.25 c 200.49,0 381.71,-30.87 545.74,-91.72 164.02,-60.85 283.5,-139.35 357.42,-233.71 74.92,-94.37 111.37,-198.44 111.37,-310.45 0,-164.92 -75.94,-307.8 -226.8,-428.62 -150.87,-120.83 -342.22,-180.8 -574.09,-180.8 -187.31,0 -350.32,45.86 -486,138.46 -136.68,91.73 -252.1,247.83 -347.29,468.32 h -444.48 c 81,-313.09 235.91,-553.86 464.73,-723.2 229.84,-168.45 501.19,-253.12 813.04,-253.12 227.82,0 439.43,44.98 636.86,135.82 196.43,89.96 348.3,212.55 456.64,365.13 62.46,89.31 106.74,181.01 132.85,274.92 z m -1753.36,2729.7 -208.77,325.03 c -68.99,-34.77 -134.24,-75.15 -195.72,-121.14 -251.1,-188.74 -415.12,-465.67 -492.07,-830.79 h 427.27 c 74.92,246.06 182.25,424.21 322.99,534.46 45.64,35.28 94.4,66.09 146.3,92.44 z m 1710.45,-4203.33 v -959.62 h 330.44 c 74.63,0 131.6,4.69 170.93,13.85 54.96,12.52 101.88,35.53 140.75,68.6 50.5,42.89 88.48,97.41 113.51,163.99 25.24,66.58 37.75,142.55 37.75,228.12 0,72.84 -8.49,137.41 -25.69,193.71 -16.98,56.31 -38.65,103 -65.46,139.87 -26.59,36.86 -55.64,65.91 -87.36,86.91 -31.51,21.23 -69.71,37.31 -114.4,48.26 -44.91,10.95 -96.29,16.31 -154.16,16.31 z m 126.9,-113.28 h 204.89 c 63.22,0 113.05,-5.81 149.02,-17.65 35.97,-11.84 64.57,-28.37 86.02,-49.82 30.16,-29.94 53.62,-70.61 70.38,-121.32 16.76,-50.94 25.25,-112.39 25.25,-185 0,-100.32 -16.54,-177.4 -49.38,-231.25 -33.07,-54.07 -73.06,-90.04 -120.2,-108.36 -33.97,-13.18 -88.93,-19.66 -164.22,-19.66 h -201.76 z m 821.17,-354.13 c 0,-159.3 42.68,-283.97 128.25,-374.01 85.57,-90.05 195.95,-135.18 331.34,-135.18 88.48,0 168.47,21.23 239.52,63.46 71.05,42.45 125.34,101.43 162.65,177.17 37.31,75.52 55.86,161.54 55.86,257.39 0,97.41 -19.44,184.55 -58.76,261.19 -39.33,76.85 -94.96,134.95 -166.9,174.49 -72.17,39.55 -149.7,59.21 -233.04,59.21 -90.49,0 -171.14,-21.67 -242.19,-65.46 -71.28,-43.57 -125.12,-103.23 -161.76,-178.75 -36.65,-75.29 -54.97,-155.28 -54.97,-239.51 z m 130.93,2.01 c 0,115.74 31.06,206.67 93.17,273.25 62.34,66.58 140.31,99.87 234.15,99.87 95.63,0 174.27,-33.51 235.94,-100.76 61.67,-67.25 92.72,-162.66 92.72,-286.21 0,-77.98 -13.4,-146.12 -39.77,-204.44 -26.36,-58.31 -65.01,-103.44 -115.73,-135.62 -50.94,-31.95 -107.92,-48.03 -171.15,-48.03 -90.04,0 -167.34,30.83 -232.14,92.72 -64.79,61.67 -97.19,164.89 -97.19,309.22 z m 925.96,157.07 119.75,-10.5 c 5.59,48.04 18.77,87.36 39.55,118.19 20.78,30.84 52.95,55.64 96.52,74.63 43.57,18.99 92.72,28.37 147.24,28.37 48.48,0 91.15,-7.15 128.24,-21.45 37.09,-14.52 64.8,-34.18 82.9,-59.2 18.09,-25.25 27.25,-52.51 27.25,-82.23 0,-30.16 -8.71,-56.3 -26.36,-78.87 -17.43,-22.56 -46.25,-41.33 -86.24,-56.52 -25.92,-10.06 -82.67,-25.7 -170.93,-46.92 -88.03,-21.23 -149.91,-41.11 -185.22,-59.88 -45.8,-23.91 -79.98,-53.85 -102.55,-89.37 -22.34,-35.53 -33.51,-75.3 -33.51,-119.53 0,-48.26 13.63,-93.62 41.11,-135.62 27.48,-42.23 67.7,-74.18 120.42,-96.08 52.96,-21.67 111.49,-32.62 176.06,-32.62 71.28,0 133.84,11.4 188.35,34.41 54.3,22.79 96.08,56.53 125.35,100.99 29.04,44.46 44.9,94.96 47.14,151.26 l -121.77,9.16 c -6.7,-60.55 -28.82,-106.58 -66.58,-137.41 -37.76,-31.05 -93.39,-46.47 -167.12,-46.47 -76.86,0 -132.72,14.07 -168.02,42.23 -35.08,28.15 -52.73,62.11 -52.73,101.66 0,34.63 12.51,63 37.31,85.12 24.58,22.34 88.26,45.13 191.48,68.37 103.22,23.46 174.05,43.79 212.48,61.22 55.86,25.92 97.19,58.54 123.78,97.86 26.59,39.55 39.77,85.13 39.77,136.51 0,51.17 -14.53,99.2 -43.79,144.34 -29.27,45.13 -71.28,80.21 -126.02,105.45 -54.74,25.03 -116.4,37.54 -184.77,37.54 -86.91,0 -159.75,-12.51 -218.29,-37.98 -58.76,-25.25 -104.79,-63.23 -138.3,-114.17 -33.29,-50.72 -50.94,-108.37 -52.5,-172.49 z"
   mask="url(#id1)"
   id="path36"
   inkscape:connector-curvature="0" />&#10;  </g>&#10; </g>&#10;</svg>
